STARTFONT 2.1
FONT -FontForge-Moon Phases-Book-R-Normal--75-720-75-75-P-719-MacRoman-0
SIZE 72 75 75
FONTBOUNDINGBOX 68 68 4 3
COMMENT "Generated by fontforge, http://fontforge.sourceforge.net"
COMMENT "(c) 1995 by Curtis Clark, free for personal use"
STARTPROPERTIES 40
FOUNDRY "FontForge"
FAMILY_NAME "Moon Phases"
WEIGHT_NAME "Book"
SLANT "R"
SETWIDTH_NAME "Normal"
ADD_STYLE_NAME ""
PIXEL_SIZE 75
POINT_SIZE 720
RESOLUTION_X 75
RESOLUTION_Y 75
SPACING "P"
AVERAGE_WIDTH 719
CHARSET_REGISTRY "MacRoman"
CHARSET_ENCODING "0"
FONTNAME_REGISTRY ""
CHARSET_COLLECTIONS "MacRoman"
FONT_NAME "MoonPhases"
FACE_NAME "Moon Phases"
COPYRIGHT "(c) 1995 by Curtis Clark, free for personal use"
FONT_VERSION "1.0"
FONT_ASCENT 60
FONT_DESCENT 15
UNDERLINE_POSITION 0
UNDERLINE_THICKNESS 0
X_HEIGHT 68
CAP_HEIGHT 70
DEFAULT_CHAR 1
RAW_ASCENT 799
RAW_DESCENT 200
NORM_SPACE 75
RELATIVE_WEIGHT 40
RELATIVE_SETWIDTH 50
SUPERSCRIPT_X 0
SUPERSCRIPT_Y 0
SUPERSCRIPT_SIZE 0
SUBSCRIPT_X 0
SUBSCRIPT_Y 0
SUBSCRIPT_SIZE 0
AVG_LOWERCASE_WIDTH 730
AVG_UPPERCASE_WIDTH 760
ENDPROPERTIES
CHARS 54
STARTCHAR zero
ENCODING 48
SWIDTH 1006 0
DWIDTH 76 0
BBX 68 68 4 3
BITMAP
0000003FFFC0000000
000003FFFFF8000000
00000FFFFFFF000000
00003FFFFFFFC00000
0000FFFFFFFFF00000
0001FFFFFFFFF80000
0007FFFFFFFFFC0000
000FFFFFFFFFFF0000
001FFFFFFFFFFF8000
003FFFFFFFFFFFC000
007FFFFFFFFFFFE000
00FFFFFFFFFFFFF000
01FFFFFFFFFFFFF000
03FFFFFFFFFFFFF800
03FFFFFFFFFFFFFC00
07FFFFFFFFFFFFFE00
0FFFFFFFFFFFFFFE00
0FFFFFFFFFFFFFFF00
1FFFFFFFFFFFFFFF00
1FFFFFFFFFFFFFFF80
3FFFFFFFFFFFFFFF80
3FFFFFFFFFFFFFFFC0
7FFFFFFFFFFFFFFFC0
7FFFFFFFFFFFFFFFC0
7FFFFFFFFFFFFFFFE0
7FFFFFFFFFFFFFFFE0
FFFFFFFFFFFFFFFFE0
FFFFFFFFFFFFFFFFE0
FFFFFFFFFFFFFFFFF0
FFFFFFFFFFFFFFFFF0
FFFFFFFFFFFFFFFFF0
FFFFFFFFFFFFFFFFF0
FFFFFFFFFFFFFFFFF0
FFFFFFFFFFFFFFFFF0
FFFFFFFFFFFFFFFFF0
FFFFFFFFFFFFFFFFF0
FFFFFFFFFFFFFFFFF0
FFFFFFFFFFFFFFFFF0
FFFFFFFFFFFFFFFFF0
FFFFFFFFFFFFFFFFE0
FFFFFFFFFFFFFFFFE0
7FFFFFFFFFFFFFFFE0
7FFFFFFFFFFFFFFFE0
7FFFFFFFFFFFFFFFE0
7FFFFFFFFFFFFFFFC0
3FFFFFFFFFFFFFFFC0
3FFFFFFFFFFFFFFFC0
3FFFFFFFFFFFFFFF80
1FFFFFFFFFFFFFFF80
1FFFFFFFFFFFFFFF00
0FFFFFFFFFFFFFFF00
07FFFFFFFFFFFFFE00
07FFFFFFFFFFFFFC00
03FFFFFFFFFFFFFC00
01FFFFFFFFFFFFF800
00FFFFFFFFFFFFF000
00FFFFFFFFFFFFE000
007FFFFFFFFFFFC000
003FFFFFFFFFFF8000
001FFFFFFFFFFF0000
0007FFFFFFFFFE0000
0003FFFFFFFFFC0000
0001FFFFFFFFF00000
00007FFFFFFFC00000
00001FFFFFFF800000
000007FFFFFC000000
000000FFFFE0000000
00000007FC00000000
ENDCHAR
STARTCHAR .notdef.dup45
ENCODING 49
SWIDTH 1000 0
DWIDTH 75 0
BBX 68 68 4 3
BITMAP
0000003FFFC0000000
000003FFFFF8000000
00000FF001FF000000
00003F00000FC00000
0000F8000003F00000
0001E0000000F80000
0007800000003C0000
000F000000000F0000
001E00000000078000
00380000000003C000
00700000000001E000
00E00000000000F000
01C000000000007000
038000000000003800
038000000000001C00
070000000000000E00
0E0000000000000E00
0C0000000000000700
1C0000000000000300
180000000000000380
380000000000000180
3000000000000001C0
7000000000000001C0
7000000000000000C0
6000000000000000E0
6000000000000000E0
E00000000000000060
E00000000000000060
C00000000000000070
C00000000000000070
C00000000000000070
C00000000000000070
C00000000000000070
C00000000000000070
C00000000000000070
C00000000000000070
C00000000000000070
C00000000000000070
C00000000000000070
E00000000000000060
E00000000000000060
600000000000000060
6000000000000000E0
7000000000000000E0
7000000000000000C0
3000000000000001C0
3800000000000001C0
380000000000000380
1C0000000000000380
1C0000000000000700
0E0000000000000700
070000000000000E00
070000000000001C00
038000000000003C00
01C000000000003800
00E000000000007000
00F00000000000E000
00780000000001C000
003C00000000078000
001E000000000F0000
0007800000001E0000
0003E00000007C0000
0001F0000001F00000
00007E000007C00000
00001FC0007F800000
000007FFFFFC000000
000000FFFFE0000000
00000007FC00000000
ENDCHAR
STARTCHAR A
ENCODING 65
SWIDTH 1006 0
DWIDTH 76 0
BBX 68 68 4 3
BITMAP
0000003FFFC0000000
000003FFFFF8000000
00000FFFFFFF000000
00003FFFFFEFC00000
0000FFFFFFFBF00000
0001FFFFFFFEF80000
0007FFFFFFFFBC0000
000FFFFFFFFFCF0000
001FFFFFFFFFE78000
003FFFFFFFFFF3C000
007FFFFFFFFFF9E000
00FFFFFFFFFFFCF000
01FFFFFFFFFFFE7000
03FFFFFFFFFFFF3800
03FFFFFFFFFFFF9C00
07FFFFFFFFFFFF8E00
0FFFFFFFFFFFFFCE00
0FFFFFFFFFFFFFE700
1FFFFFFFFFFFFFE300
1FFFFFFFFFFFFFF380
3FFFFFFFFFFFFFF180
3FFFFFFFFFFFFFF9C0
7FFFFFFFFFFFFFF9C0
7FFFFFFFFFFFFFF8C0
7FFFFFFFFFFFFFFCE0
7FFFFFFFFFFFFFFCE0
FFFFFFFFFFFFFFFC60
FFFFFFFFFFFFFFFC60
FFFFFFFFFFFFFFFC70
FFFFFFFFFFFFFFFE70
FFFFFFFFFFFFFFFE70
FFFFFFFFFFFFFFFE70
FFFFFFFFFFFFFFFE70
FFFFFFFFFFFFFFFE70
FFFFFFFFFFFFFFFE70
FFFFFFFFFFFFFFFE70
FFFFFFFFFFFFFFFE70
FFFFFFFFFFFFFFFE70
FFFFFFFFFFFFFFFC70
FFFFFFFFFFFFFFFC60
FFFFFFFFFFFFFFFC60
7FFFFFFFFFFFFFFC60
7FFFFFFFFFFFFFFCE0
7FFFFFFFFFFFFFF8E0
7FFFFFFFFFFFFFF8C0
3FFFFFFFFFFFFFF9C0
3FFFFFFFFFFFFFF1C0
3FFFFFFFFFFFFFF380
1FFFFFFFFFFFFFE380
1FFFFFFFFFFFFFE700
0FFFFFFFFFFFFFC700
07FFFFFFFFFFFFCE00
07FFFFFFFFFFFF9C00
03FFFFFFFFFFFF3C00
01FFFFFFFFFFFF3800
00FFFFFFFFFFFE7000
00FFFFFFFFFFFCE000
007FFFFFFFFFF9C000
003FFFFFFFFFF78000
001FFFFFFFFFEF0000
0007FFFFFFFF9E0000
0003FFFFFFFF7C0000
0001FFFFFFFDF00000
00007FFFFFF7C00000
00001FFFFFFF800000
000007FFFFFC000000
000000FFFFE0000000
00000007FC00000000
ENDCHAR
STARTCHAR B
ENCODING 66
SWIDTH 1006 0
DWIDTH 76 0
BBX 68 68 4 3
BITMAP
0000003FFFC0000000
000003FFFFF8000000
00000FFFFDFF000000
00003FFFFFCFC00000
0000FFFFFFF3F00000
0001FFFFFFFCF80000
0007FFFFFFFE3C0000
000FFFFFFFFF0F0000
001FFFFFFFFF878000
003FFFFFFFFFC3C000
007FFFFFFFFFE1E000
00FFFFFFFFFFF0F000
01FFFFFFFFFFF87000
03FFFFFFFFFFFC3800
03FFFFFFFFFFFC1C00
07FFFFFFFFFFFE0E00
0FFFFFFFFFFFFF0E00
0FFFFFFFFFFFFF0700
1FFFFFFFFFFFFF8300
1FFFFFFFFFFFFF8380
3FFFFFFFFFFFFF8180
3FFFFFFFFFFFFFC1C0
7FFFFFFFFFFFFFC1C0
7FFFFFFFFFFFFFC0C0
7FFFFFFFFFFFFFE0E0
7FFFFFFFFFFFFFE0E0
FFFFFFFFFFFFFFE060
FFFFFFFFFFFFFFE060
FFFFFFFFFFFFFFE070
FFFFFFFFFFFFFFE070
FFFFFFFFFFFFFFF070
FFFFFFFFFFFFFFF070
FFFFFFFFFFFFFFF070
FFFFFFFFFFFFFFF070
FFFFFFFFFFFFFFF070
FFFFFFFFFFFFFFF070
FFFFFFFFFFFFFFF070
FFFFFFFFFFFFFFE070
FFFFFFFFFFFFFFE070
FFFFFFFFFFFFFFE060
FFFFFFFFFFFFFFE060
7FFFFFFFFFFFFFE060
7FFFFFFFFFFFFFE0E0
7FFFFFFFFFFFFFC0E0
7FFFFFFFFFFFFFC0C0
3FFFFFFFFFFFFFC1C0
3FFFFFFFFFFFFF81C0
3FFFFFFFFFFFFF8380
1FFFFFFFFFFFFF8380
1FFFFFFFFFFFFF0700
0FFFFFFFFFFFFF0700
07FFFFFFFFFFFE0E00
07FFFFFFFFFFFE1C00
03FFFFFFFFFFFC3C00
01FFFFFFFFFFF83800
00FFFFFFFFFFF07000
00FFFFFFFFFFF0E000
007FFFFFFFFFE1C000
003FFFFFFFFFC78000
001FFFFFFFFF8F0000
0007FFFFFFFF1E0000
0003FFFFFFFC7C0000
0001FFFFFFF9F00000
00007FFFFFE7C00000
00001FFFFF7F800000
000007FFFFFC000000
000000FFFFE0000000
00000007FC00000000
ENDCHAR
STARTCHAR C
ENCODING 67
SWIDTH 1006 0
DWIDTH 76 0
BBX 68 68 4 3
BITMAP
0000003FFFC0000000
000003FFFFF8000000
00000FFFFDFF000000
00003FFFFF8FC00000
0000FFFFFFE3F00000
0001FFFFFFF0F80000
0007FFFFFFF83C0000
000FFFFFFFFC0F0000
001FFFFFFFFE078000
003FFFFFFFFF03C000
007FFFFFFFFF81E000
00FFFFFFFFFFC0F000
01FFFFFFFFFFC07000
03FFFFFFFFFFE03800
03FFFFFFFFFFE01C00
07FFFFFFFFFFF00E00
0FFFFFFFFFFFF00E00
0FFFFFFFFFFFF80700
1FFFFFFFFFFFF80300
1FFFFFFFFFFFFC0380
3FFFFFFFFFFFFC0180
3FFFFFFFFFFFFC01C0
7FFFFFFFFFFFFE01C0
7FFFFFFFFFFFFE00C0
7FFFFFFFFFFFFE00E0
7FFFFFFFFFFFFE00E0
FFFFFFFFFFFFFE0060
FFFFFFFFFFFFFF0060
FFFFFFFFFFFFFF0070
FFFFFFFFFFFFFF0070
FFFFFFFFFFFFFF0070
FFFFFFFFFFFFFF0070
FFFFFFFFFFFFFF0070
FFFFFFFFFFFFFF0070
FFFFFFFFFFFFFF0070
FFFFFFFFFFFFFF0070
FFFFFFFFFFFFFF0070
FFFFFFFFFFFFFF0070
FFFFFFFFFFFFFF0070
FFFFFFFFFFFFFF0060
FFFFFFFFFFFFFE0060
7FFFFFFFFFFFFE0060
7FFFFFFFFFFFFE00E0
7FFFFFFFFFFFFE00E0
7FFFFFFFFFFFFE00C0
3FFFFFFFFFFFFC01C0
3FFFFFFFFFFFFC01C0
3FFFFFFFFFFFFC0380
1FFFFFFFFFFFF80380
1FFFFFFFFFFFF80700
0FFFFFFFFFFFF80700
07FFFFFFFFFFF00E00
07FFFFFFFFFFF01C00
03FFFFFFFFFFE03C00
01FFFFFFFFFFC03800
00FFFFFFFFFFC07000
00FFFFFFFFFF80E000
007FFFFFFFFF01C000
003FFFFFFFFF078000
001FFFFFFFFE0F0000
0007FFFFFFFC1E0000
0003FFFFFFF07C0000
0001FFFFFFE1F00000
00007FFFFF87C00000
00001FFFFE7F800000
000007FFFFFC000000
000000FFFFE0000000
00000007FC00000000
ENDCHAR
STARTCHAR D
ENCODING 68
SWIDTH 1006 0
DWIDTH 76 0
BBX 68 68 4 3
BITMAP
0000003FFFC0000000
000003FFFFF8000000
00000FFFF9FF000000
00003FFFFE0FC00000
0000FFFFFF83F00000
0001FFFFFFC0F80000
0007FFFFFFE03C0000
000FFFFFFFF00F0000
001FFFFFFFF8078000
003FFFFFFFF803C000
007FFFFFFFFC01E000
00FFFFFFFFFC00F000
01FFFFFFFFFE007000
03FFFFFFFFFF003800
03FFFFFFFFFF001C00
07FFFFFFFFFF000E00
0FFFFFFFFFFF800E00
0FFFFFFFFFFF800700
1FFFFFFFFFFF800300
1FFFFFFFFFFFC00380
3FFFFFFFFFFFC00180
3FFFFFFFFFFFC001C0
7FFFFFFFFFFFE001C0
7FFFFFFFFFFFE000C0
7FFFFFFFFFFFE000E0
7FFFFFFFFFFFE000E0
FFFFFFFFFFFFE00060
FFFFFFFFFFFFE00060
FFFFFFFFFFFFE00070
FFFFFFFFFFFFE00070
FFFFFFFFFFFFF00070
FFFFFFFFFFFFF00070
FFFFFFFFFFFFF00070
FFFFFFFFFFFFF00070
FFFFFFFFFFFFF00070
FFFFFFFFFFFFF00070
FFFFFFFFFFFFF00070
FFFFFFFFFFFFE00070
FFFFFFFFFFFFE00070
FFFFFFFFFFFFE00060
FFFFFFFFFFFFE00060
7FFFFFFFFFFFE00060
7FFFFFFFFFFFE000E0
7FFFFFFFFFFFE000E0
7FFFFFFFFFFFE000C0
3FFFFFFFFFFFC001C0
3FFFFFFFFFFFC001C0
3FFFFFFFFFFFC00380
1FFFFFFFFFFFC00380
1FFFFFFFFFFF800700
0FFFFFFFFFFF800700
07FFFFFFFFFF800E00
07FFFFFFFFFF001C00
03FFFFFFFFFF003C00
01FFFFFFFFFE003800
00FFFFFFFFFE007000
00FFFFFFFFFC00E000
007FFFFFFFFC01C000
003FFFFFFFF8078000
001FFFFFFFF00F0000
0007FFFFFFE01E0000
0003FFFFFFC07C0000
0001FFFFFF81F00000
00007FFFFF07C00000
00001FFFFC7F800000
000007FFFFFC000000
000000FFFFE0000000
00000007FC00000000
ENDCHAR
STARTCHAR E
ENCODING 69
SWIDTH 1006 0
DWIDTH 76 0
BBX 68 68 4 3
BITMAP
0000003FFFC0000000
000003FFFFF8000000
00000FFFF1FF000000
00003FFFFC0FC00000
0000FFFFFE03F00000
0001FFFFFF00F80000
0007FFFFFF003C0000
000FFFFFFF800F0000
001FFFFFFF80078000
003FFFFFFFC003C000
007FFFFFFFC001E000
00FFFFFFFFE000F000
01FFFFFFFFE0007000
03FFFFFFFFE0003800
03FFFFFFFFF0001C00
07FFFFFFFFF0000E00
0FFFFFFFFFF0000E00
0FFFFFFFFFF8000700
1FFFFFFFFFF8000300
1FFFFFFFFFF8000380
3FFFFFFFFFF8000180
3FFFFFFFFFF80001C0
7FFFFFFFFFFC0001C0
7FFFFFFFFFFC0000C0
7FFFFFFFFFFC0000E0
7FFFFFFFFFFC0000E0
FFFFFFFFFFFC000060
FFFFFFFFFFFC000060
FFFFFFFFFFFC000070
FFFFFFFFFFFC000070
FFFFFFFFFFFC000070
FFFFFFFFFFFC000070
FFFFFFFFFFFC000070
FFFFFFFFFFFC000070
FFFFFFFFFFFC000070
FFFFFFFFFFFC000070
FFFFFFFFFFFC000070
FFFFFFFFFFFC000070
FFFFFFFFFFFC000070
FFFFFFFFFFFC000060
FFFFFFFFFFFC000060
7FFFFFFFFFFC000060
7FFFFFFFFFFC0000E0
7FFFFFFFFFFC0000E0
7FFFFFFFFFFC0000C0
3FFFFFFFFFFC0001C0
3FFFFFFFFFF80001C0
3FFFFFFFFFF8000380
1FFFFFFFFFF8000380
1FFFFFFFFFF8000700
0FFFFFFFFFF0000700
07FFFFFFFFF0000E00
07FFFFFFFFF0001C00
03FFFFFFFFF0003C00
01FFFFFFFFE0003800
00FFFFFFFFE0007000
00FFFFFFFFC000E000
007FFFFFFFC001C000
003FFFFFFFC0078000
001FFFFFFF800F0000
0007FFFFFF001E0000
0003FFFFFF007C0000
0001FFFFFE01F00000
00007FFFFC07C00000
00001FFFF87F800000
000007FFFFFC000000
000000FFFFE0000000
00000007FC00000000
ENDCHAR
STARTCHAR F
ENCODING 70
SWIDTH 1006 0
DWIDTH 76 0
BBX 68 68 4 3
BITMAP
0000003FFFC0000000
000003FFFFF8000000
00000FFFE1FF000000
00003FFFF00FC00000
0000FFFFF803F00000
0001FFFFF800F80000
0007FFFFF8003C0000
000FFFFFFC000F0000
001FFFFFFC00078000
003FFFFFFC0003C000
007FFFFFFC0001E000
00FFFFFFFE0000F000
01FFFFFFFE00007000
03FFFFFFFE00003800
03FFFFFFFE00001C00
07FFFFFFFE00000E00
0FFFFFFFFF00000E00
0FFFFFFFFF00000700
1FFFFFFFFF00000300
1FFFFFFFFF00000380
3FFFFFFFFF00000180
3FFFFFFFFF000001C0
7FFFFFFFFF000001C0
7FFFFFFFFF000000C0
7FFFFFFFFF000000E0
7FFFFFFFFF000000E0
FFFFFFFFFF00000060
FFFFFFFFFF80000060
FFFFFFFFFF80000070
FFFFFFFFFF80000070
FFFFFFFFFF80000070
FFFFFFFFFF80000070
FFFFFFFFFF80000070
FFFFFFFFFF80000070
FFFFFFFFFF80000070
FFFFFFFFFF80000070
FFFFFFFFFF80000070
FFFFFFFFFF80000070
FFFFFFFFFF80000070
FFFFFFFFFF80000060
FFFFFFFFFF00000060
7FFFFFFFFF00000060
7FFFFFFFFF000000E0
7FFFFFFFFF000000E0
7FFFFFFFFF000000C0
3FFFFFFFFF000001C0
3FFFFFFFFF000001C0
3FFFFFFFFF00000380
1FFFFFFFFF00000380
1FFFFFFFFF00000700
0FFFFFFFFF00000700
07FFFFFFFE00000E00
07FFFFFFFE00001C00
03FFFFFFFE00003C00
01FFFFFFFE00003800
00FFFFFFFE00007000
00FFFFFFFE0000E000
007FFFFFFC0001C000
003FFFFFFC00078000
001FFFFFFC000F0000
0007FFFFF8001E0000
0003FFFFF8007C0000
0001FFFFF801F00000
00007FFFF007C00000
00001FFFE07F800000
000007FFFFFC000000
000000FFFFE0000000
00000007FC00000000
ENDCHAR
STARTCHAR G
ENCODING 71
SWIDTH 1006 0
DWIDTH 76 0
BBX 68 68 4 3
BITMAP
0000003FFFC0000000
000003FFFFF8000000
00000FFFC1FF000000
00003FFFC00FC00000
0000FFFFC003F00000
0001FFFFC000F80000
0007FFFFC0003C0000
000FFFFFC0000F0000
001FFFFFC000078000
003FFFFFC00003C000
007FFFFFC00001E000
00FFFFFFC00000F000
01FFFFFFC000007000
03FFFFFFC000003800
03FFFFFFC000001C00
07FFFFFFC000000E00
0FFFFFFFC000000E00
0FFFFFFFC000000700
1FFFFFFFC000000300
1FFFFFFFC000000380
3FFFFFFFC000000180
3FFFFFFFC0000001C0
7FFFFFFFC0000001C0
7FFFFFFFC0000000C0
7FFFFFFFC0000000E0
7FFFFFFFC0000000E0
FFFFFFFFC000000060
FFFFFFFFC000000060
FFFFFFFFC000000070
FFFFFFFFC000000070
FFFFFFFFC000000070
FFFFFFFFC000000070
FFFFFFFFC000000070
FFFFFFFFC000000070
FFFFFFFFC000000070
FFFFFFFFC000000070
FFFFFFFFC000000070
FFFFFFFFC000000070
FFFFFFFFC000000070
FFFFFFFFC000000060
FFFFFFFFC000000060
7FFFFFFFC000000060
7FFFFFFFC0000000E0
7FFFFFFFC0000000E0
7FFFFFFFC0000000C0
3FFFFFFFC0000001C0
3FFFFFFFC0000001C0
3FFFFFFFC000000380
1FFFFFFFC000000380
1FFFFFFFC000000700
0FFFFFFFC000000700
07FFFFFFC000000E00
07FFFFFFC000001C00
03FFFFFFC000003C00
01FFFFFFC000003800
00FFFFFFC000007000
00FFFFFFC00000E000
007FFFFFC00001C000
003FFFFFC000078000
001FFFFFC0000F0000
0007FFFFC0001E0000
0003FFFFC0007C0000
0001FFFFC001F00000
00007FFFC007C00000
00001FFFC07F800000
000007FFFFFC000000
000000FFFFE0000000
00000007FC00000000
ENDCHAR
STARTCHAR H
ENCODING 72
SWIDTH 1006 0
DWIDTH 76 0
BBX 68 68 4 3
BITMAP
0000003FFFC0000000
000003FFFFF8000000
00000FFF81FF000000
00003FFF001FC00000
0000FFFE0003F00000
0001FFFE0000F80000
0007FFFC00003C0000
000FFFFC00000F0000
001FFFFC0000078000
003FFFF8000003C000
007FFFF8000001E000
00FFFFF8000000F000
01FFFFF80000007800
03FFFFF80000003800
03FFFFF00000001C00
07FFFFF00000000E00
0FFFFFF00000000E00
0FFFFFF00000000700
1FFFFFF00000000300
1FFFFFF00000000380
3FFFFFF00000000180
3FFFFFE000000001C0
7FFFFFE000000001C0
7FFFFFE000000000C0
7FFFFFE000000000E0
7FFFFFE000000000E0
FFFFFFE00000000060
FFFFFFE00000000060
FFFFFFE00000000070
FFFFFFE00000000070
FFFFFFE00000000070
FFFFFFE00000000070
FFFFFFE00000000070
FFFFFFE00000000070
FFFFFFE00000000070
FFFFFFE00000000070
FFFFFFE00000000070
FFFFFFE00000000070
FFFFFFE00000000070
FFFFFFE00000000060
FFFFFFE00000000060
7FFFFFE00000000060
7FFFFFE000000000E0
7FFFFFE000000000E0
7FFFFFE000000000C0
3FFFFFE000000001C0
3FFFFFE000000001C0
3FFFFFF00000000380
1FFFFFF00000000380
1FFFFFF00000000700
0FFFFFF00000000700
07FFFFF00000000E00
07FFFFF00000001C00
03FFFFF00000003C00
01FFFFF80000003800
00FFFFF80000007000
00FFFFF8000000E000
007FFFF8000001C000
003FFFF80000078000
001FFFFC00000F0000
0007FFFC00001E0000
0003FFFC00007C0000
0001FFFE0001F00000
00007FFE0007E00000
00001FFF003F800000
000007FFFFFC000000
000000FFFFE0000000
00000007FC00000000
ENDCHAR
STARTCHAR I
ENCODING 73
SWIDTH 1006 0
DWIDTH 76 0
BBX 68 68 4 3
BITMAP
0000003FFFC0000000
000003FFFFF8000000
00000FFF01FF000000
00003FFC001FC00000
0000FFF80003F00000
0001FFF00000F80000
0007FFE000003C0000
000FFFE000000F0000
001FFFC00000078000
003FFFC0000003C000
007FFF80000001E000
00FFFF80000000F000
01FFFF000000007800
03FFFF000000003800
03FFFF000000001C00
07FFFF000000000E00
0FFFFE000000000E00
0FFFFE000000000700
1FFFFE000000000300
1FFFFE000000000380
3FFFFC000000000180
3FFFFC0000000001C0
7FFFFC0000000001C0
7FFFFC0000000000C0
7FFFFC0000000000E0
7FFFFC0000000000E0
FFFFF8000000000060
FFFFF8000000000060
FFFFF8000000000070
FFFFF8000000000070
FFFFF8000000000070
FFFFF8000000000070
FFFFF8000000000070
FFFFF8000000000070
FFFFF8000000000070
FFFFF8000000000070
FFFFF8000000000070
FFFFF8000000000070
FFFFF8000000000070
FFFFF8000000000060
FFFFF8000000000060
7FFFFC000000000060
7FFFFC0000000000E0
7FFFFC0000000000E0
7FFFFC0000000000C0
3FFFFC0000000001C0
3FFFFC0000000001C0
3FFFFC000000000380
1FFFFE000000000380
1FFFFE000000000700
0FFFFE000000000700
07FFFE000000000E00
07FFFF000000001C00
03FFFF000000003C00
01FFFF000000003800
00FFFF800000007000
00FFFF80000000E000
007FFFC0000001C000
003FFFC00000078000
001FFFE000000F0000
0007FFE000001E0000
0003FFF000007C0000
0001FFF80001F00000
00007FF80007E00000
00001FFE003F800000
000007FFFFFC000000
000000FFFFE0000000
00000007FC00000000
ENDCHAR
STARTCHAR J
ENCODING 74
SWIDTH 1006 0
DWIDTH 76 0
BBX 68 68 4 3
BITMAP
0000003FFFC0000000
000003FFFFF8000000
00000FFE01FF000000
00003FF0001FC00000
0000FFE00003F00000
0001FFC00000F80000
0007FF8000003C0000
000FFF0000000F0000
001FFE000000078000
003FFC00000003C000
007FFC00000001E000
00FFF800000000F000
01FFF8000000007800
03FFF0000000003800
03FFF0000000001C00
07FFE0000000000E00
0FFFE0000000000E00
0FFFC0000000000700
1FFFC0000000000300
1FFFC0000000000380
3FFFC0000000000180
3FFF800000000001C0
7FFF800000000001C0
7FFF800000000000C0
7FFF800000000000E0
7FFF800000000000E0
FFFF00000000000060
FFFF00000000000060
FFFF00000000000070
FFFF00000000000070
FFFF00000000000070
FFFF00000000000070
FFFF00000000000070
FFFF00000000000070
FFFF00000000000070
FFFF00000000000070
FFFF00000000000070
FFFF00000000000070
FFFF00000000000070
FFFF00000000000060
FFFF00000000000060
7FFF00000000000060
7FFF800000000000E0
7FFF800000000000E0
7FFF800000000000C0
3FFF800000000001C0
3FFF800000000001C0
3FFFC0000000000380
1FFFC0000000000380
1FFFC0000000000700
0FFFE0000000000700
07FFE0000000000E00
07FFE0000000001C00
03FFF0000000003C00
01FFF0000000003800
00FFF8000000007000
00FFF800000000E000
007FFC00000001C000
003FFE000000078000
001FFE0000000F0000
0007FF0000001E0000
0003FF8000007C0000
0001FFC00001F00000
00007FF00007E00000
00001FFC003F800000
000007FFFFFC000000
000000FFFFE0000000
00000007FC00000000
ENDCHAR
STARTCHAR K
ENCODING 75
SWIDTH 1006 0
DWIDTH 76 0
BBX 68 68 4 3
BITMAP
0000003FFFC0000000
000003FFFFF8000000
00000FFC01FF000000
00003FE0001FC00000
0000FF800003F00000
0001FF000000F80000
0007FC0000003C0000
000FF80000000F0000
001FF0000000078000
003FF000000003C000
007FE000000001E000
00FFC000000000F000
01FF80000000007800
03FF80000000003800
03FF00000000001C00
07FF00000000000E00
0FFE00000000000E00
0FFE00000000000700
1FFC00000000000300
1FFC00000000000380
3FFC00000000000180
3FF8000000000001C0
7FF8000000000001C0
7FF8000000000000C0
7FF8000000000000E0
7FF0000000000000E0
FFF000000000000060
FFF000000000000060
FFF000000000000070
FFF000000000000070
FFF000000000000070
FFF000000000000070
FFF000000000000070
FFF000000000000070
FFF000000000000070
FFF000000000000070
FFF000000000000070
FFF000000000000070
FFF000000000000070
FFF000000000000060
FFF000000000000060
7FF000000000000060
7FF0000000000000E0
7FF8000000000000E0
7FF8000000000000C0
3FF8000000000001C0
3FFC000000000001C0
3FFC00000000000380
1FFC00000000000380
1FFE00000000000700
0FFE00000000000700
07FE00000000000E00
07FF00000000001C00
03FF80000000003C00
01FF80000000003800
00FFC0000000007000
00FFC000000000E000
007FE000000001C000
003FF0000000078000
001FF80000000F0000
0007FC0000001E0000
0003FE0000007C0000
0001FF000001F00000
00007FC00007E00000
00001FF0003F800000
000007FFFFFC000000
000000FFFFE0000000
00000007FC00000000
ENDCHAR
STARTCHAR L
ENCODING 76
SWIDTH 1006 0
DWIDTH 76 0
BBX 68 68 4 3
BITMAP
0000003FFFC0000000
000003FFFFF8000000
00000FF801FF000000
00003FC0001FC00000
0000FF000003F00000
0001FC000000F80000
0007F80000003C0000
000FE00000000F0000
001FC0000000078000
003F8000000003C000
007F0000000001E000
00FE0000000000F000
01FE00000000007800
03FC00000000003800
03F800000000001C00
07F800000000000E00
0FF000000000000E00
0FF000000000000700
1FE000000000000300
1FE000000000000380
3FC000000000000180
3FC0000000000001C0
7FC0000000000001C0
7F80000000000000C0
7F80000000000000E0
7F80000000000000E0
FF8000000000000060
FF0000000000000060
FF0000000000000070
FF0000000000000070
FF0000000000000070
FF0000000000000070
FF0000000000000070
FF0000000000000070
FF0000000000000070
FF0000000000000070
FF0000000000000070
FF0000000000000070
FF0000000000000070
FF0000000000000060
FF8000000000000060
7F8000000000000060
7F80000000000000E0
7F80000000000000E0
7F80000000000000C0
3FC0000000000001C0
3FC0000000000001C0
3FC000000000000380
1FE000000000000380
1FE000000000000700
0FF000000000000700
07F000000000000E00
07F800000000001C00
03FC00000000003C00
01FC00000000003800
00FE00000000007000
00FF0000000000E000
007F8000000001C000
003FC0000000078000
001FE00000000F0000
0007F00000001E0000
0003F80000007C0000
0001FE000001F00000
00007F800007E00000
00001FF0003F800000
000007FFFFFC000000
000000FFFFE0000000
00000007FC00000000
ENDCHAR
STARTCHAR M
ENCODING 77
SWIDTH 1006 0
DWIDTH 76 0
BBX 68 68 4 3
BITMAP
0000003FFFC0000000
000003FFFFF8000000
00000FF801FF000000
00003F80001FC00000
0000FC000003F00000
0001F0000000F80000
0007E00000003C0000
000FC00000000F0000
001F00000000078000
003E0000000003C000
007C0000000001E000
00F80000000000F000
01F000000000007800
03F000000000003800
03E000000000001C00
07C000000000000E00
0F8000000000000E00
0F8000000000000700
1F0000000000000300
1F0000000000000380
3E0000000000000180
3E00000000000001C0
7E00000000000001C0
7C00000000000000C0
7C00000000000000E0
7C00000000000000E0
FC0000000000000060
F80000000000000060
F80000000000000070
F80000000000000070
F80000000000000070
F80000000000000070
F80000000000000070
F80000000000000070
F80000000000000070
F80000000000000070
F80000000000000070
F80000000000000070
F80000000000000070
F80000000000000060
F80000000000000060
7C0000000000000060
7C00000000000000E0
7C00000000000000E0
7E00000000000000C0
3E00000000000001C0
3E00000000000001C0
3F0000000000000380
1F0000000000000380
1F8000000000000700
0F8000000000000700
07C000000000000E00
07C000000000001C00
03E000000000003C00
01F000000000003800
00F800000000007000
00FC0000000000E000
007E0000000001C000
003F00000000078000
001F800000000F0000
0007C00000001E0000
0003F00000007C0000
0001FC000001F00000
00007F000007E00000
00001FE0003F800000
000007FFFFFC000000
000000FFFFE0000000
00000007FC00000000
ENDCHAR
STARTCHAR N
ENCODING 78
SWIDTH 1006 0
DWIDTH 76 0
BBX 68 68 4 3
BITMAP
0000003FFFC0000000
000003FFFFF8000000
00000FF001FF000000
00003F00001FC00000
0000F8000007F00000
0001E0000001F80000
0007800000007C0000
000F000000003F0000
001E000000001F8000
0038000000000FC000
00700000000007E000
00E00000000003F000
01C00000000001F000
03800000000000F800
038000000000007C00
070000000000007E00
0E0000000000003E00
0C0000000000001F00
1C0000000000001F00
180000000000000F80
380000000000000F80
3000000000000007C0
7000000000000007C0
7000000000000007C0
6000000000000003E0
6000000000000003E0
E000000000000003E0
E000000000000003E0
C000000000000003F0
C000000000000001F0
C000000000000001F0
C000000000000001F0
C000000000000001F0
C000000000000001F0
C000000000000001F0
C000000000000001F0
C000000000000001F0
C000000000000001F0
C000000000000003F0
E000000000000003E0
E000000000000003E0
6000000000000003E0
6000000000000003E0
7000000000000007E0
7000000000000007C0
3000000000000007C0
380000000000000FC0
380000000000000F80
1C0000000000001F80
1C0000000000001F00
0E0000000000003F00
070000000000003E00
070000000000007C00
03800000000000FC00
01C00000000000F800
00E00000000001F000
00F00000000003E000
00780000000007C000
003C000000000F8000
001E000000001F0000
0007800000007E0000
0003E0000000FC0000
0001F0000003F00000
00007E00000FC00000
00001FC0007F800000
000007FFFFFC000000
000000FFFFE0000000
00000007FC00000000
ENDCHAR
STARTCHAR O
ENCODING 79
SWIDTH 1006 0
DWIDTH 76 0
BBX 68 68 4 3
BITMAP
0000003FFFC0000000
000003FFFFF8000000
00000FF003FF000000
00003F00003FC00000
0000F800000FF00000
0001E0000003F80000
000780000001FC0000
000F00000000FF0000
001E000000007F8000
0038000000003FC000
0070000000001FE000
00E0000000000FF000
01C00000000007F000
03800000000003F800
03800000000003FC00
07000000000001FE00
0E000000000001FE00
0C000000000000FF00
1C000000000000FF00
180000000000007F80
380000000000007F80
300000000000003FC0
700000000000003FC0
700000000000003FC0
600000000000001FE0
600000000000001FE0
E00000000000001FE0
E00000000000001FE0
C00000000000001FF0
C00000000000001FF0
C00000000000000FF0
C00000000000000FF0
C00000000000000FF0
C00000000000000FF0
C00000000000000FF0
C00000000000000FF0
C00000000000000FF0
C00000000000001FF0
C00000000000001FF0
E00000000000001FE0
E00000000000001FE0
600000000000001FE0
600000000000001FE0
700000000000003FE0
700000000000003FC0
300000000000003FC0
380000000000007FC0
380000000000007F80
1C0000000000007F80
1C000000000000FF00
0E000000000000FF00
07000000000001FE00
07000000000001FC00
03800000000003FC00
01C00000000007F800
00E0000000000FF000
00F0000000000FE000
0078000000001FC000
003C000000003F8000
001E000000007F0000
000780000000FE0000
0003C0000003FC0000
0001F0000007F00000
00007E00001FC00000
00001FC000FF800000
000007FFFFFC000000
000000FFFFE0000000
00000007FC00000000
ENDCHAR
STARTCHAR P
ENCODING 80
SWIDTH 1006 0
DWIDTH 76 0
BBX 68 68 4 3
BITMAP
0000003FFFC0000000
000003FFFFF8000000
00000FF003FF000000
00003F00007FC00000
0000F800001FF00000
0001E000000FF80000
000780000007FC0000
000F00000003FF0000
001E00000001FF8000
003800000000FFC000
0070000000007FE000
00E0000000003FF000
01C0000000003FF000
0380000000001FF800
0380000000001FFC00
0700000000000FFE00
0E00000000000FFE00
0C000000000007FF00
1C000000000007FF00
18000000000003FF80
38000000000003FF80
30000000000003FFC0
70000000000001FFC0
70000000000001FFC0
60000000000001FFE0
60000000000001FFE0
E0000000000001FFE0
E0000000000000FFE0
C0000000000000FFF0
C0000000000000FFF0
C0000000000000FFF0
C0000000000000FFF0
C0000000000000FFF0
C0000000000000FFF0
C0000000000000FFF0
C0000000000000FFF0
C0000000000000FFF0
C0000000000000FFF0
C0000000000000FFF0
E0000000000000FFE0
E0000000000001FFE0
60000000000001FFE0
60000000000001FFE0
70000000000001FFE0
70000000000001FFC0
30000000000003FFC0
38000000000003FFC0
38000000000003FF80
1C000000000007FF80
1C000000000007FF00
0E000000000007FF00
0700000000000FFE00
0700000000000FFC00
0380000000001FFC00
01C0000000003FF800
00E0000000003FF000
00F0000000007FE000
007800000000FFC000
003C00000000FF8000
001E00000001FF0000
000780000003FE0000
0003E000000FFC0000
0001F800001FF00000
00007E00007FC00000
00001FC001FF800000
000007FFFFFC000000
000000FFFFE0000000
00000007FC00000000
ENDCHAR
STARTCHAR Q
ENCODING 81
SWIDTH 1006 0
DWIDTH 76 0
BBX 68 68 4 3
BITMAP
0000003FFFC0000000
000003FFFFF8000000
00000FF007FF000000
00003F0001FFC00000
0000F800007FF00000
0001E000003FF80000
00078000001FFC0000
000F0000000FFF0000
001E00000007FF8000
003800000007FFC000
007000000003FFE000
00E000000003FFF000
01C000000001FFF000
038000000001FFF800
038000000000FFFC00
070000000000FFFE00
0E00000000007FFE00
0C00000000007FFF00
1C00000000007FFF00
1800000000003FFF80
3800000000003FFF80
3000000000003FFFC0
7000000000001FFFC0
7000000000001FFFC0
6000000000001FFFE0
6000000000001FFFE0
E000000000001FFFE0
E000000000001FFFE0
C000000000001FFFF0
C000000000001FFFF0
C000000000000FFFF0
C000000000000FFFF0
C000000000000FFFF0
C000000000000FFFF0
C000000000000FFFF0
C000000000000FFFF0
C000000000000FFFF0
C000000000001FFFF0
C000000000001FFFF0
E000000000001FFFE0
E000000000001FFFE0
6000000000001FFFE0
6000000000001FFFE0
7000000000001FFFE0
7000000000001FFFC0
3000000000003FFFC0
3800000000003FFFC0
3800000000003FFF80
1C00000000003FFF80
1C00000000007FFF00
0E00000000007FFF00
0700000000007FFE00
070000000000FFFC00
038000000000FFFC00
01C000000001FFF800
00E000000001FFF000
00F000000003FFE000
007800000003FFC000
003C00000007FF8000
001E0000000FFF0000
00078000001FFE0000
0003E000003FFC0000
0001F000007FF00000
00007E0000FFC00000
00001FC003FF800000
000007FFFFFC000000
000000FFFFE0000000
00000007FC00000000
ENDCHAR
STARTCHAR R
ENCODING 82
SWIDTH 1006 0
DWIDTH 76 0
BBX 68 68 4 3
BITMAP
0000003FFFC0000000
000003FFFFF8000000
00000FF00FFF000000
00003F0003FFC00000
0000F80001FFF00000
0001E00000FFF80000
0007800000FFFC0000
000F0000007FFF0000
001E0000007FFF8000
00380000003FFFC000
00700000003FFFE000
00E00000001FFFF000
01C00000001FFFF000
03800000001FFFF800
03800000000FFFFC00
07000000000FFFFE00
0E000000000FFFFE00
0C0000000007FFFF00
1C0000000007FFFF00
180000000007FFFF80
380000000007FFFF80
300000000007FFFFC0
700000000003FFFFC0
700000000003FFFFC0
600000000003FFFFE0
600000000003FFFFE0
E00000000003FFFFE0
E00000000003FFFFE0
C00000000003FFFFF0
C00000000003FFFFF0
C00000000003FFFFF0
C00000000003FFFFF0
C00000000003FFFFF0
C00000000003FFFFF0
C00000000003FFFFF0
C00000000003FFFFF0
C00000000003FFFFF0
C00000000003FFFFF0
C00000000003FFFFF0
E00000000003FFFFE0
E00000000003FFFFE0
600000000003FFFFE0
600000000003FFFFE0
700000000003FFFFE0
700000000003FFFFC0
300000000003FFFFC0
380000000007FFFFC0
380000000007FFFF80
1C0000000007FFFF80
1C0000000007FFFF00
0E000000000FFFFF00
07000000000FFFFE00
07000000000FFFFC00
03800000000FFFFC00
01C00000001FFFF800
00E00000001FFFF000
00F00000003FFFE000
00780000003FFFC000
003C0000003FFF8000
001E0000007FFF0000
0007800000FFFE0000
0003C00000FFFC0000
0001F00001FFF00000
00007E0003FFC00000
00001FC007FF800000
000007FFFFFC000000
000000FFFFE0000000
00000007FC00000000
ENDCHAR
STARTCHAR S
ENCODING 83
SWIDTH 1006 0
DWIDTH 76 0
BBX 68 68 4 3
BITMAP
0000003FFFC0000000
000003FFFFF8000000
00000FF01FFF000000
00003F000FFFC00000
0000F80007FFF00000
0001E00007FFF80000
0007800007FFFC0000
000F000003FFFF0000
001E000003FFFF8000
0038000003FFFFC000
0070000003FFFFE000
00E0000001FFFFF000
01C0000001FFFFF000
0380000001FFFFF800
0380000001FFFFFC00
0700000001FFFFFE00
0E00000000FFFFFE00
0C00000000FFFFFF00
1C00000000FFFFFF00
1800000000FFFFFF80
3800000000FFFFFF80
3000000000FFFFFFC0
7000000000FFFFFFC0
7000000000FFFFFFC0
6000000000FFFFFFE0
6000000000FFFFFFE0
E000000000FFFFFFE0
E0000000007FFFFFE0
C0000000007FFFFFF0
C0000000007FFFFFF0
C0000000007FFFFFF0
C0000000007FFFFFF0
C0000000007FFFFFF0
C0000000007FFFFFF0
C0000000007FFFFFF0
C0000000007FFFFFF0
C0000000007FFFFFF0
C0000000007FFFFFF0
C0000000007FFFFFF0
E0000000007FFFFFE0
E000000000FFFFFFE0
6000000000FFFFFFE0
6000000000FFFFFFE0
7000000000FFFFFFE0
7000000000FFFFFFC0
3000000000FFFFFFC0
3800000000FFFFFFC0
3800000000FFFFFF80
1C00000000FFFFFF80
1C00000000FFFFFF00
0E00000000FFFFFF00
0700000001FFFFFE00
0700000001FFFFFC00
0380000001FFFFFC00
01C0000001FFFFF800
00E0000001FFFFF000
00F0000001FFFFE000
0078000003FFFFC000
003C000003FFFF8000
001E000003FFFF0000
0007800007FFFE0000
0003E00007FFFC0000
0001F80007FFF00000
00007E000FFFC00000
00001FC01FFF800000
000007FFFFFC000000
000000FFFFE0000000
00000007FC00000000
ENDCHAR
STARTCHAR T
ENCODING 84
SWIDTH 1006 0
DWIDTH 76 0
BBX 68 68 4 3
BITMAP
0000003FFFC0000000
000003FFFFF8000000
00000FF03FFF000000
00003F003FFFC00000
0000F8003FFFF00000
0001E0003FFFF80000
0007C0003FFFFC0000
000F00003FFFFF0000
001E00003FFFFF8000
003800003FFFFFC000
007000003FFFFFE000
00E000003FFFFFF000
01C000003FFFFFF800
038000003FFFFFF800
038000003FFFFFFC00
070000003FFFFFFE00
0E0000003FFFFFFE00
0E0000003FFFFFFF00
1C0000003FFFFFFF00
180000003FFFFFFF80
380000003FFFFFFF80
380000003FFFFFFFC0
700000003FFFFFFFC0
700000003FFFFFFFC0
600000003FFFFFFFE0
600000003FFFFFFFE0
E00000003FFFFFFFE0
E00000003FFFFFFFE0
E00000003FFFFFFFF0
C00000003FFFFFFFF0
C00000003FFFFFFFF0
C00000003FFFFFFFF0
C00000003FFFFFFFF0
C00000003FFFFFFFF0
C00000003FFFFFFFF0
C00000003FFFFFFFF0
C00000003FFFFFFFF0
C00000003FFFFFFFF0
C00000003FFFFFFFF0
E00000003FFFFFFFE0
E00000003FFFFFFFE0
600000003FFFFFFFE0
600000003FFFFFFFE0
700000003FFFFFFFE0
700000003FFFFFFFC0
300000003FFFFFFFC0
380000003FFFFFFFC0
380000003FFFFFFF80
1C0000003FFFFFFF80
1C0000003FFFFFFF00
0E0000003FFFFFFF00
070000003FFFFFFE00
070000003FFFFFFC00
038000003FFFFFFC00
01C000003FFFFFF800
00E000003FFFFFF000
00F000003FFFFFE000
007800003FFFFFC000
003C00003FFFFF8000
001E00003FFFFF0000
000780003FFFFE0000
0003E0003FFFFC0000
0001F0003FFFF00000
00007E003FFFE00000
00001FC03FFF800000
000007FFFFFC000000
000000FFFFE0000000
00000007FC00000000
ENDCHAR
STARTCHAR U
ENCODING 85
SWIDTH 1006 0
DWIDTH 76 0
BBX 68 68 4 3
BITMAP
0000003FFFC0000000
000003FFFFF8000000
00000FF07FFF000000
00003F00FFFFC00000
0000F801FFFFF00000
0001E001FFFFF80000
00078003FFFFFC0000
000F0003FFFFFF0000
001E0003FFFFFF8000
00380007FFFFFFC000
00700007FFFFFFE000
00E00007FFFFFFF000
01C00007FFFFFFF800
0380000FFFFFFFF800
0380000FFFFFFFFC00
0700000FFFFFFFFE00
0E00000FFFFFFFFE00
0E00000FFFFFFFFF00
1C00000FFFFFFFFF00
1800000FFFFFFFFF80
3800000FFFFFFFFF80
3800001FFFFFFFFFC0
7000001FFFFFFFFFC0
7000001FFFFFFFFFC0
6000001FFFFFFFFFE0
6000001FFFFFFFFFE0
E000001FFFFFFFFFE0
E000001FFFFFFFFFE0
E000001FFFFFFFFFF0
C000001FFFFFFFFFF0
C000001FFFFFFFFFF0
C000001FFFFFFFFFF0
C000001FFFFFFFFFF0
C000001FFFFFFFFFF0
C000001FFFFFFFFFF0
C000001FFFFFFFFFF0
C000001FFFFFFFFFF0
C000001FFFFFFFFFF0
C000001FFFFFFFFFF0
E000001FFFFFFFFFE0
E000001FFFFFFFFFE0
6000001FFFFFFFFFE0
6000001FFFFFFFFFE0
7000001FFFFFFFFFE0
7000001FFFFFFFFFC0
3000001FFFFFFFFFC0
3800001FFFFFFFFFC0
3800000FFFFFFFFF80
1C00000FFFFFFFFF80
1C00000FFFFFFFFF00
0E00000FFFFFFFFF00
0700000FFFFFFFFE00
0700000FFFFFFFFC00
0380000FFFFFFFFC00
01C00007FFFFFFF800
00E00007FFFFFFF000
00F00007FFFFFFE000
00780007FFFFFFC000
003C0007FFFFFF8000
001E0003FFFFFF0000
00078003FFFFFE0000
0003E003FFFFFC0000
0001F001FFFFF00000
00007E01FFFFE00000
00001FC0FFFF800000
000007FFFFFC000000
000000FFFFE0000000
00000007FC00000000
ENDCHAR
STARTCHAR V
ENCODING 86
SWIDTH 1006 0
DWIDTH 76 0
BBX 68 68 4 3
BITMAP
0000003FFFC0000000
000003FFFFF8000000
00000FF0FFFF000000
00003F03FFFFC00000
0000F807FFFFF00000
0001E00FFFFFF80000
0007C01FFFFFFC0000
000F001FFFFFFF0000
001E003FFFFFFF8000
0038003FFFFFFFC000
0070007FFFFFFFE000
00E0007FFFFFFFF000
01C000FFFFFFFFF800
038000FFFFFFFFF800
038000FFFFFFFFFC00
070001FFFFFFFFFE00
0E0001FFFFFFFFFE00
0E0001FFFFFFFFFF00
1C0001FFFFFFFFFF00
180003FFFFFFFFFF80
380003FFFFFFFFFF80
380003FFFFFFFFFFC0
700003FFFFFFFFFFC0
700003FFFFFFFFFFC0
600003FFFFFFFFFFE0
600003FFFFFFFFFFE0
E00007FFFFFFFFFFE0
E00007FFFFFFFFFFE0
E00007FFFFFFFFFFF0
C00007FFFFFFFFFFF0
C00007FFFFFFFFFFF0
C00007FFFFFFFFFFF0
C00007FFFFFFFFFFF0
C00007FFFFFFFFFFF0
C00007FFFFFFFFFFF0
C00007FFFFFFFFFFF0
C00007FFFFFFFFFFF0
C00007FFFFFFFFFFF0
C00007FFFFFFFFFFF0
E00007FFFFFFFFFFE0
E00007FFFFFFFFFFE0
600003FFFFFFFFFFE0
600003FFFFFFFFFFE0
700003FFFFFFFFFFE0
700003FFFFFFFFFFC0
300003FFFFFFFFFFC0
380003FFFFFFFFFFC0
380003FFFFFFFFFF80
1C0001FFFFFFFFFF80
1C0001FFFFFFFFFF00
0E0001FFFFFFFFFF00
070001FFFFFFFFFE00
070000FFFFFFFFFC00
038000FFFFFFFFFC00
01C000FFFFFFFFF800
00E0007FFFFFFFF000
00F0007FFFFFFFE000
0078007FFFFFFFC000
003C003FFFFFFF8000
001E003FFFFFFF0000
0007801FFFFFFE0000
0003E00FFFFFFC0000
0001F00FFFFFF00000
00007E07FFFFE00000
00001FC1FFFF800000
000007FFFFFC000000
000000FFFFE0000000
00000007FC00000000
ENDCHAR
STARTCHAR W
ENCODING 87
SWIDTH 1006 0
DWIDTH 76 0
BBX 68 68 4 3
BITMAP
0000003FFFC0000000
000003FFFFF8000000
00000FF1FFFF000000
00003F0FFFFFC00000
0000F81FFFFFF00000
0001E03FFFFFF80000
0007C07FFFFFFC0000
000F00FFFFFFFF0000
001E01FFFFFFFF8000
003803FFFFFFFFC000
007003FFFFFFFFE000
00E007FFFFFFFFF000
01C007FFFFFFFFF800
03800FFFFFFFFFF800
03800FFFFFFFFFFC00
07001FFFFFFFFFFE00
0E001FFFFFFFFFFE00
0E003FFFFFFFFFFF00
1C003FFFFFFFFFFF00
18003FFFFFFFFFFF80
38003FFFFFFFFFFF80
38007FFFFFFFFFFFC0
70007FFFFFFFFFFFC0
70007FFFFFFFFFFFC0
60007FFFFFFFFFFFE0
6000FFFFFFFFFFFFE0
E000FFFFFFFFFFFFE0
E000FFFFFFFFFFFFE0
E000FFFFFFFFFFFFF0
C000FFFFFFFFFFFFF0
C000FFFFFFFFFFFFF0
C000FFFFFFFFFFFFF0
C000FFFFFFFFFFFFF0
C000FFFFFFFFFFFFF0
C000FFFFFFFFFFFFF0
C000FFFFFFFFFFFFF0
C000FFFFFFFFFFFFF0
C000FFFFFFFFFFFFF0
C000FFFFFFFFFFFFF0
E000FFFFFFFFFFFFE0
E000FFFFFFFFFFFFE0
6000FFFFFFFFFFFFE0
60007FFFFFFFFFFFE0
70007FFFFFFFFFFFE0
70007FFFFFFFFFFFC0
30007FFFFFFFFFFFC0
38007FFFFFFFFFFFC0
38003FFFFFFFFFFF80
1C003FFFFFFFFFFF80
1C003FFFFFFFFFFF00
0E001FFFFFFFFFFF00
07001FFFFFFFFFFE00
07001FFFFFFFFFFC00
03800FFFFFFFFFFC00
01C00FFFFFFFFFF800
00E007FFFFFFFFF000
00F007FFFFFFFFE000
007803FFFFFFFFC000
003C01FFFFFFFF8000
001E01FFFFFFFF0000
000780FFFFFFFE0000
0003E07FFFFFFC0000
0001F03FFFFFF00000
00007E0FFFFFE00000
00001FC7FFFF800000
000007FFFFFC000000
000000FFFFE0000000
00000007FC00000000
ENDCHAR
STARTCHAR X
ENCODING 88
SWIDTH 1006 0
DWIDTH 76 0
BBX 68 68 4 3
BITMAP
0000003FFFC0000000
000003FFFFF8000000
00000FF3FFFF000000
00003F1FFFFFC00000
0000F87FFFFFF00000
0001E0FFFFFFF80000
000783FFFFFFFC0000
000F07FFFFFFFF0000
001E0FFFFFFFFF8000
00380FFFFFFFFFC000
00701FFFFFFFFFE000
00E03FFFFFFFFFF000
01C07FFFFFFFFFF800
03807FFFFFFFFFF800
0380FFFFFFFFFFFC00
0700FFFFFFFFFFFE00
0E01FFFFFFFFFFFE00
0E01FFFFFFFFFFFF00
1C03FFFFFFFFFFFF00
1803FFFFFFFFFFFF80
3803FFFFFFFFFFFF80
3807FFFFFFFFFFFFC0
7007FFFFFFFFFFFFC0
7007FFFFFFFFFFFFC0
6007FFFFFFFFFFFFE0
600FFFFFFFFFFFFFE0
E00FFFFFFFFFFFFFE0
E00FFFFFFFFFFFFFE0
E00FFFFFFFFFFFFFF0
C00FFFFFFFFFFFFFF0
C00FFFFFFFFFFFFFF0
C00FFFFFFFFFFFFFF0
C00FFFFFFFFFFFFFF0
C00FFFFFFFFFFFFFF0
C00FFFFFFFFFFFFFF0
C00FFFFFFFFFFFFFF0
C00FFFFFFFFFFFFFF0
C00FFFFFFFFFFFFFF0
C00FFFFFFFFFFFFFF0
E00FFFFFFFFFFFFFE0
E00FFFFFFFFFFFFFE0
600FFFFFFFFFFFFFE0
600FFFFFFFFFFFFFE0
7007FFFFFFFFFFFFE0
7007FFFFFFFFFFFFC0
3007FFFFFFFFFFFFC0
3807FFFFFFFFFFFFC0
3803FFFFFFFFFFFF80
1C03FFFFFFFFFFFF80
1C01FFFFFFFFFFFF00
0E01FFFFFFFFFFFF00
0701FFFFFFFFFFFE00
0700FFFFFFFFFFFC00
03807FFFFFFFFFFC00
01C07FFFFFFFFFF800
00E03FFFFFFFFFF000
00F03FFFFFFFFFE000
00781FFFFFFFFFC000
003C0FFFFFFFFF8000
001E07FFFFFFFF0000
000783FFFFFFFE0000
0003E1FFFFFFFC0000
0001F0FFFFFFF00000
00007E3FFFFFE00000
00001FCFFFFF800000
000007FFFFFC000000
000000FFFFE0000000
00000007FC00000000
ENDCHAR
STARTCHAR Y
ENCODING 89
SWIDTH 1006 0
DWIDTH 76 0
BBX 68 68 4 3
BITMAP
0000003FFFC0000000
000003FFFFF8000000
00000FF7FFFF000000
00003F3FFFFFC00000
0000F8FFFFFFF00000
0001E3FFFFFFF80000
0007C7FFFFFFFC0000
000F1FFFFFFFFF0000
001E3FFFFFFFFF8000
00387FFFFFFFFFC000
0070FFFFFFFFFFE000
00E1FFFFFFFFFFF000
01C1FFFFFFFFFFF800
0383FFFFFFFFFFF800
0387FFFFFFFFFFFC00
0707FFFFFFFFFFFE00
0E0FFFFFFFFFFFFE00
0E0FFFFFFFFFFFFF00
1C1FFFFFFFFFFFFF00
181FFFFFFFFFFFFF80
383FFFFFFFFFFFFF80
383FFFFFFFFFFFFFC0
703FFFFFFFFFFFFFC0
707FFFFFFFFFFFFFC0
607FFFFFFFFFFFFFE0
607FFFFFFFFFFFFFE0
E07FFFFFFFFFFFFFE0
E0FFFFFFFFFFFFFFE0
E0FFFFFFFFFFFFFFF0
C0FFFFFFFFFFFFFFF0
C0FFFFFFFFFFFFFFF0
C0FFFFFFFFFFFFFFF0
C0FFFFFFFFFFFFFFF0
C0FFFFFFFFFFFFFFF0
C0FFFFFFFFFFFFFFF0
C0FFFFFFFFFFFFFFF0
C0FFFFFFFFFFFFFFF0
C0FFFFFFFFFFFFFFF0
C0FFFFFFFFFFFFFFF0
E0FFFFFFFFFFFFFFE0
E0FFFFFFFFFFFFFFE0
607FFFFFFFFFFFFFE0
607FFFFFFFFFFFFFE0
707FFFFFFFFFFFFFE0
707FFFFFFFFFFFFFC0
303FFFFFFFFFFFFFC0
383FFFFFFFFFFFFFC0
383FFFFFFFFFFFFF80
1C1FFFFFFFFFFFFF80
1C1FFFFFFFFFFFFF00
0E0FFFFFFFFFFFFF00
070FFFFFFFFFFFFE00
0707FFFFFFFFFFFC00
0383FFFFFFFFFFFC00
01C3FFFFFFFFFFF800
00E1FFFFFFFFFFF000
00F0FFFFFFFFFFE000
00787FFFFFFFFFC000
003C3FFFFFFFFF8000
001E1FFFFFFFFF0000
00078FFFFFFFFE0000
0003E7FFFFFFFC0000
0001F1FFFFFFF00000
00007E7FFFFFE00000
00001FDFFFFF800000
000007FFFFFC000000
000000FFFFE0000000
00000007FC00000000
ENDCHAR
STARTCHAR Z
ENCODING 90
SWIDTH 1006 0
DWIDTH 76 0
BBX 68 68 4 3
BITMAP
0000003FFFC0000000
000003FFFFF8000000
00000FF7FFFF000000
00003F7FFFFFC00000
0000FBFFFFFFF00000
0001E7FFFFFFF80000
0007DFFFFFFFFC0000
000F3FFFFFFFFF0000
001EFFFFFFFFFF8000
0039FFFFFFFFFFC000
0073FFFFFFFFFFE000
00E7FFFFFFFFFFF000
01CFFFFFFFFFFFF800
038FFFFFFFFFFFF800
039FFFFFFFFFFFFC00
073FFFFFFFFFFFFE00
0E7FFFFFFFFFFFFE00
0E7FFFFFFFFFFFFF00
1CFFFFFFFFFFFFFF00
18FFFFFFFFFFFFFF80
39FFFFFFFFFFFFFF80
39FFFFFFFFFFFFFFC0
71FFFFFFFFFFFFFFC0
73FFFFFFFFFFFFFFC0
63FFFFFFFFFFFFFFE0
63FFFFFFFFFFFFFFE0
E3FFFFFFFFFFFFFFE0
E7FFFFFFFFFFFFFFE0
E7FFFFFFFFFFFFFFF0
C7FFFFFFFFFFFFFFF0
C7FFFFFFFFFFFFFFF0
C7FFFFFFFFFFFFFFF0
C7FFFFFFFFFFFFFFF0
C7FFFFFFFFFFFFFFF0
C7FFFFFFFFFFFFFFF0
C7FFFFFFFFFFFFFFF0
C7FFFFFFFFFFFFFFF0
C7FFFFFFFFFFFFFFF0
C7FFFFFFFFFFFFFFF0
E7FFFFFFFFFFFFFFE0
E7FFFFFFFFFFFFFFE0
63FFFFFFFFFFFFFFE0
63FFFFFFFFFFFFFFE0
73FFFFFFFFFFFFFFE0
73FFFFFFFFFFFFFFC0
31FFFFFFFFFFFFFFC0
39FFFFFFFFFFFFFFC0
38FFFFFFFFFFFFFF80
1CFFFFFFFFFFFFFF80
1C7FFFFFFFFFFFFF00
0E7FFFFFFFFFFFFF00
073FFFFFFFFFFFFE00
073FFFFFFFFFFFFC00
039FFFFFFFFFFFFC00
01CFFFFFFFFFFFF800
00E7FFFFFFFFFFF000
00F3FFFFFFFFFFE000
0079FFFFFFFFFFC000
003CFFFFFFFFFF8000
001E7FFFFFFFFF0000
0007BFFFFFFFFE0000
0003EFFFFFFFFC0000
0001F3FFFFFFF00000
00007EFFFFFFE00000
00001FDFFFFF800000
000007FFFFFC000000
000000FFFFE0000000
00000007FC00000000
ENDCHAR
STARTCHAR a
ENCODING 97
SWIDTH 972 0
DWIDTH 73 0
BBX 26 62 43 7
BITMAP
80000000
08000000
02000000
00800000
00200000
00180000
000C0000
00060000
00030000
00018000
0000C000
00006000
00003000
00003800
00001800
00000C00
00000E00
00000600
00000700
00000300
00000300
00000380
00000180
00000180
000001C0
000001C0
000001C0
000000C0
000000C0
000000C0
000000C0
000000C0
000000C0
000000C0
000000C0
000000C0
000001C0
000001C0
000001C0
000001C0
00000180
00000380
00000380
00000300
00000700
00000600
00000E00
00000C00
00001C00
00001800
00003000
00006000
00006000
0000C000
00018000
00030000
00040000
00080000
00300000
00400000
01000000
04000000
ENDCHAR
STARTCHAR b
ENCODING 98
SWIDTH 972 0
DWIDTH 73 0
BBX 27 63 42 6
BITMAP
80000000
0C000000
03000000
00C00000
00700000
003C0000
001E0000
000F0000
00078000
0003C000
0001E000
0000F000
0000F800
00007C00
00007C00
00003E00
00003F00
00001F00
00001F80
00000F80
00000F80
00000FC0
000007C0
000007C0
000007E0
000007E0
000007E0
000007E0
000003E0
000003E0
000003E0
000003E0
000003E0
000003E0
000003E0
000007E0
000007E0
000007E0
000007E0
000007E0
000007C0
00000FC0
00000FC0
00000F80
00001F80
00001F00
00001F00
00003E00
00003E00
00007C00
00007800
0000F000
0001F000
0003E000
0003C000
00078000
000E0000
001C0000
00380000
00E00000
01800000
06000000
20000000
ENDCHAR
STARTCHAR c
ENCODING 99
SWIDTH 972 0
DWIDTH 73 0
BBX 27 63 42 6
BITMAP
C0000000
1C000000
07000000
03C00000
01F00000
00FC0000
007E0000
003F0000
001F8000
000FC000
000FE000
0007F000
0007F800
0003FC00
0003FC00
0001FE00
0001FF00
0000FF00
0000FF80
0000FF80
00007F80
00007FC0
00007FC0
00007FC0
00007FE0
00003FE0
00003FE0
00003FE0
00003FE0
00003FE0
00003FE0
00003FE0
00003FE0
00003FE0
00003FE0
00003FE0
00003FE0
00003FE0
00007FE0
00007FE0
00007FC0
00007FC0
00007FC0
0000FF80
0000FF80
0000FF00
0001FF00
0001FE00
0001FE00
0003FC00
0003F800
0007F000
000FF000
000FE000
001FC000
003F8000
003E0000
007C0000
00F80000
03E00000
07800000
1E000000
60000000
ENDCHAR
STARTCHAR d
ENCODING 100
SWIDTH 972 0
DWIDTH 73 0
BBX 28 63 41 6
BITMAP
E0000000
3E000000
0F800000
07E00000
03F80000
01FE0000
00FF0000
00FF8000
007FC000
007FE000
003FF000
003FF800
001FFC00
001FFE00
000FFE00
000FFF00
000FFF80
0007FF80
0007FFC0
0007FFC0
0003FFC0
0003FFE0
0003FFE0
0003FFE0
0003FFF0
0003FFF0
0003FFF0
0003FFF0
0001FFF0
0001FFF0
0001FFF0
0001FFF0
0001FFF0
0001FFF0
0001FFF0
0003FFF0
0003FFF0
0003FFF0
0003FFF0
0003FFF0
0003FFE0
0003FFE0
0003FFE0
0007FFC0
0007FFC0
0007FF80
0007FF80
000FFF00
000FFF00
000FFE00
001FFC00
001FF800
003FF800
003FF000
007FE000
007FC000
00FF0000
01FE0000
03FC0000
07F00000
0FC00000
1F000000
70000000
ENDCHAR
STARTCHAR e
ENCODING 101
SWIDTH 972 0
DWIDTH 73 0
BBX 29 63 40 6
BITMAP
E0000000
3F000000
1FC00000
0FF00000
0FFC0000
07FF0000
07FF8000
03FFC000
03FFE000
01FFF000
01FFF800
01FFFC00
00FFFE00
00FFFF00
00FFFF00
007FFF80
007FFFC0
007FFFC0
007FFFE0
007FFFE0
003FFFE0
003FFFF0
003FFFF0
003FFFF0
003FFFF8
003FFFF8
003FFFF8
003FFFF8
003FFFF8
003FFFF8
003FFFF8
003FFFF8
003FFFF8
003FFFF8
003FFFF8
003FFFF8
003FFFF8
003FFFF8
003FFFF8
003FFFF8
003FFFF0
003FFFF0
003FFFF0
003FFFE0
007FFFE0
007FFFC0
007FFFC0
007FFF80
00FFFF80
00FFFF00
00FFFE00
00FFFC00
01FFFC00
01FFF800
03FFF000
03FFE000
03FF8000
07FF0000
0FFE0000
0FF80000
1FE00000
3F800000
78000000
ENDCHAR
STARTCHAR f
ENCODING 102
SWIDTH 972 0
DWIDTH 73 0
BBX 30 63 39 6
BITMAP
F8000000
7F800000
3FE00000
3FF80000
3FFE0000
1FFF8000
1FFFC000
1FFFE000
1FFFF000
0FFFF800
0FFFFC00
0FFFFE00
0FFFFF00
0FFFFF80
07FFFF80
07FFFFC0
07FFFFE0
07FFFFE0
07FFFFF0
07FFFFF0
07FFFFF0
07FFFFF8
07FFFFF8
07FFFFF8
07FFFFFC
03FFFFFC
03FFFFFC
03FFFFFC
03FFFFFC
03FFFFFC
03FFFFFC
03FFFFFC
03FFFFFC
03FFFFFC
03FFFFFC
03FFFFFC
03FFFFFC
03FFFFFC
07FFFFFC
07FFFFFC
07FFFFF8
07FFFFF8
07FFFFF8
07FFFFF0
07FFFFF0
07FFFFE0
07FFFFE0
07FFFFC0
07FFFFC0
0FFFFF80
0FFFFF00
0FFFFE00
0FFFFE00
0FFFFC00
0FFFF800
1FFFF000
1FFFC000
1FFF8000
3FFF0000
3FFC0000
3FF00000
7FC00000
FC000000
ENDCHAR
STARTCHAR g
ENCODING 103
SWIDTH 972 0
DWIDTH 73 0
BBX 31 63 38 6
BITMAP
FC000000
FFC00000
FFF00000
FFFC0000
FFFF0000
FFFFC000
FFFFE000
FFFFF000
FFFFF800
FFFFFC00
FFFFFE00
FFFFFF00
FFFFFF80
FFFFFFC0
FFFFFFC0
FFFFFFE0
FFFFFFF0
FFFFFFF0
FFFFFFF8
FFFFFFF8
FFFFFFF8
FFFFFFFC
FFFFFFFC
FFFFFFFC
FFFFFFFE
FFFFFFFE
FFFFFFFE
FFFFFFFE
FFFFFFFE
FFFFFFFE
FFFFFFFE
FFFFFFFE
FFFFFFFE
FFFFFFFE
FFFFFFFE
FFFFFFFE
FFFFFFFE
FFFFFFFE
FFFFFFFE
FFFFFFFE
FFFFFFFC
FFFFFFFC
FFFFFFFC
FFFFFFF8
FFFFFFF8
FFFFFFF0
FFFFFFF0
FFFFFFE0
FFFFFFE0
FFFFFFC0
FFFFFF80
FFFFFF00
FFFFFF00
FFFFFE00
FFFFFC00
FFFFF800
FFFFE000
FFFFC000
FFFF8000
FFFE0000
FFF80000
FFE00000
FE000000
ENDCHAR
STARTCHAR h
ENCODING 104
SWIDTH 972 0
DWIDTH 73 0
BBX 38 63 31 6
BITMAP
03F0000000
07FF800000
0FFFE00000
0FFFF80000
1FFFFE0000
1FFFFF8000
1FFFFFC000
3FFFFFE000
3FFFFFF000
3FFFFFF800
3FFFFFFC00
7FFFFFFE00
7FFFFFFF00
7FFFFFFF80
7FFFFFFF80
7FFFFFFFC0
7FFFFFFFE0
7FFFFFFFE0
7FFFFFFFF0
FFFFFFFFF0
FFFFFFFFF0
FFFFFFFFF8
FFFFFFFFF8
FFFFFFFFF8
FFFFFFFFFC
FFFFFFFFFC
FFFFFFFFFC
FFFFFFFFFC
FFFFFFFFFC
FFFFFFFFFC
FFFFFFFFFC
FFFFFFFFFC
FFFFFFFFFC
FFFFFFFFFC
FFFFFFFFFC
FFFFFFFFFC
FFFFFFFFFC
FFFFFFFFFC
FFFFFFFFFC
FFFFFFFFFC
FFFFFFFFF8
FFFFFFFFF8
FFFFFFFFF8
FFFFFFFFF0
FFFFFFFFF0
7FFFFFFFE0
7FFFFFFFE0
7FFFFFFFC0
7FFFFFFFC0
7FFFFFFF80
7FFFFFFF00
7FFFFFFE00
3FFFFFFE00
3FFFFFFC00
3FFFFFF800
3FFFFFF000
3FFFFFC000
1FFFFF8000
1FFFFF0000
1FFFFC0000
0FFFF00000
0FFFC00000
07FC000000
ENDCHAR
STARTCHAR i
ENCODING 105
SWIDTH 972 0
DWIDTH 73 0
BBX 44 63 25 6
BITMAP
001FE0000000
007FFE000000
00FFFF800000
01FFFFE00000
03FFFFF80000
03FFFFFE0000
07FFFFFF0000
07FFFFFF8000
0FFFFFFFC000
0FFFFFFFE000
1FFFFFFFF000
1FFFFFFFF800
1FFFFFFFFC00
3FFFFFFFFE00
3FFFFFFFFE00
3FFFFFFFFF00
3FFFFFFFFF80
7FFFFFFFFF80
7FFFFFFFFFC0
7FFFFFFFFFC0
7FFFFFFFFFC0
7FFFFFFFFFE0
7FFFFFFFFFE0
7FFFFFFFFFE0
FFFFFFFFFFF0
FFFFFFFFFFF0
FFFFFFFFFFF0
FFFFFFFFFFF0
FFFFFFFFFFF0
FFFFFFFFFFF0
FFFFFFFFFFF0
FFFFFFFFFFF0
FFFFFFFFFFF0
FFFFFFFFFFF0
FFFFFFFFFFF0
FFFFFFFFFFF0
FFFFFFFFFFF0
FFFFFFFFFFF0
FFFFFFFFFFF0
7FFFFFFFFFF0
7FFFFFFFFFE0
7FFFFFFFFFE0
7FFFFFFFFFE0
7FFFFFFFFFC0
7FFFFFFFFFC0
7FFFFFFFFF80
3FFFFFFFFF80
3FFFFFFFFF00
3FFFFFFFFF00
3FFFFFFFFE00
1FFFFFFFFC00
1FFFFFFFF800
1FFFFFFFF800
0FFFFFFFF000
0FFFFFFFE000
0FFFFFFFC000
07FFFFFF0000
07FFFFFE0000
03FFFFFC0000
01FFFFF00000
00FFFFC00000
00FFFF000000
003FF0000000
ENDCHAR
STARTCHAR j
ENCODING 106
SWIDTH 972 0
DWIDTH 73 0
BBX 49 63 20 6
BITMAP
0001FF00000000
000FFFF0000000
001FFFFC000000
003FFFFF000000
007FFFFFC00000
00FFFFFFF00000
01FFFFFFF80000
03FFFFFFFC0000
03FFFFFFFE0000
07FFFFFFFF0000
07FFFFFFFF8000
0FFFFFFFFFC000
0FFFFFFFFFE000
1FFFFFFFFFF000
1FFFFFFFFFF000
3FFFFFFFFFF800
3FFFFFFFFFFC00
3FFFFFFFFFFC00
7FFFFFFFFFFE00
7FFFFFFFFFFE00
7FFFFFFFFFFE00
7FFFFFFFFFFF00
7FFFFFFFFFFF00
FFFFFFFFFFFF00
FFFFFFFFFFFF80
FFFFFFFFFFFF80
FFFFFFFFFFFF80
FFFFFFFFFFFF80
FFFFFFFFFFFF80
FFFFFFFFFFFF80
FFFFFFFFFFFF80
FFFFFFFFFFFF80
FFFFFFFFFFFF80
FFFFFFFFFFFF80
FFFFFFFFFFFF80
FFFFFFFFFFFF80
FFFFFFFFFFFF80
FFFFFFFFFFFF80
FFFFFFFFFFFF80
FFFFFFFFFFFF80
7FFFFFFFFFFF00
7FFFFFFFFFFF00
7FFFFFFFFFFF00
7FFFFFFFFFFE00
7FFFFFFFFFFE00
3FFFFFFFFFFC00
3FFFFFFFFFFC00
3FFFFFFFFFF800
1FFFFFFFFFF800
1FFFFFFFFFF000
1FFFFFFFFFE000
0FFFFFFFFFC000
0FFFFFFFFFC000
07FFFFFFFF8000
07FFFFFFFF0000
03FFFFFFFE0000
01FFFFFFF80000
01FFFFFFF00000
00FFFFFFE00000
007FFFFF800000
003FFFFE000000
000FFFF8000000
0007FF80000000
ENDCHAR
STARTCHAR k
ENCODING 107
SWIDTH 972 0
DWIDTH 73 0
BBX 53 63 16 6
BITMAP
00003FE0000000
0001FFFF000000
0007FFFFC00000
000FFFFFF00000
003FFFFFFC0000
007FFFFFFF0000
00FFFFFFFF8000
00FFFFFFFFC000
01FFFFFFFFE000
03FFFFFFFFF000
07FFFFFFFFF800
07FFFFFFFFFC00
0FFFFFFFFFFE00
0FFFFFFFFFFF00
1FFFFFFFFFFF00
1FFFFFFFFFFF80
3FFFFFFFFFFFC0
3FFFFFFFFFFFC0
3FFFFFFFFFFFE0
7FFFFFFFFFFFE0
7FFFFFFFFFFFE0
7FFFFFFFFFFFF0
7FFFFFFFFFFFF0
FFFFFFFFFFFFF0
FFFFFFFFFFFFF8
FFFFFFFFFFFFF8
FFFFFFFFFFFFF8
FFFFFFFFFFFFF8
FFFFFFFFFFFFF8
FFFFFFFFFFFFF8
FFFFFFFFFFFFF8
FFFFFFFFFFFFF8
FFFFFFFFFFFFF8
FFFFFFFFFFFFF8
FFFFFFFFFFFFF8
FFFFFFFFFFFFF8
FFFFFFFFFFFFF8
FFFFFFFFFFFFF8
FFFFFFFFFFFFF8
FFFFFFFFFFFFF8
FFFFFFFFFFFFF0
7FFFFFFFFFFFF0
7FFFFFFFFFFFF0
7FFFFFFFFFFFE0
3FFFFFFFFFFFE0
3FFFFFFFFFFFC0
3FFFFFFFFFFFC0
1FFFFFFFFFFF80
1FFFFFFFFFFF80
1FFFFFFFFFFF00
0FFFFFFFFFFE00
07FFFFFFFFFC00
07FFFFFFFFFC00
03FFFFFFFFF800
03FFFFFFFFF000
01FFFFFFFFE000
00FFFFFFFF8000
007FFFFFFF0000
003FFFFFFE0000
001FFFFFF80000
000FFFFFE00000
0003FFFF800000
0000FFF8000000
ENDCHAR
STARTCHAR l
ENCODING 108
SWIDTH 972 0
DWIDTH 73 0
BBX 57 63 12 6
BITMAP
000007FF00000000
00003FFFF0000000
0000FFFFFC000000
0003FFFFFF000000
000FFFFFFFC00000
001FFFFFFFF00000
003FFFFFFFF80000
007FFFFFFFFC0000
00FFFFFFFFFE0000
01FFFFFFFFFF0000
01FFFFFFFFFF8000
03FFFFFFFFFFC000
07FFFFFFFFFFE000
07FFFFFFFFFFF000
0FFFFFFFFFFFF000
0FFFFFFFFFFFF800
1FFFFFFFFFFFFC00
1FFFFFFFFFFFFC00
3FFFFFFFFFFFFE00
3FFFFFFFFFFFFE00
3FFFFFFFFFFFFE00
7FFFFFFFFFFFFF00
7FFFFFFFFFFFFF00
7FFFFFFFFFFFFF00
7FFFFFFFFFFFFF80
FFFFFFFFFFFFFF80
FFFFFFFFFFFFFF80
FFFFFFFFFFFFFF80
FFFFFFFFFFFFFF80
FFFFFFFFFFFFFF80
FFFFFFFFFFFFFF80
FFFFFFFFFFFFFF80
FFFFFFFFFFFFFF80
FFFFFFFFFFFFFF80
FFFFFFFFFFFFFF80
FFFFFFFFFFFFFF80
FFFFFFFFFFFFFF80
FFFFFFFFFFFFFF80
FFFFFFFFFFFFFF80
7FFFFFFFFFFFFF80
7FFFFFFFFFFFFF00
7FFFFFFFFFFFFF00
7FFFFFFFFFFFFF00
3FFFFFFFFFFFFE00
3FFFFFFFFFFFFE00
3FFFFFFFFFFFFC00
1FFFFFFFFFFFFC00
1FFFFFFFFFFFF800
0FFFFFFFFFFFF800
0FFFFFFFFFFFF000
07FFFFFFFFFFE000
03FFFFFFFFFFC000
03FFFFFFFFFFC000
01FFFFFFFFFF8000
00FFFFFFFFFF0000
007FFFFFFFFE0000
003FFFFFFFF80000
001FFFFFFFF00000
000FFFFFFFE00000
0007FFFFFF800000
0001FFFFFE000000
00007FFFF8000000
00000FFF80000000
ENDCHAR
STARTCHAR m
ENCODING 109
SWIDTH 972 0
DWIDTH 73 0
BBX 60 63 9 6
BITMAP
000000FFE0000000
00000FFFFE000000
00007FFFFF800000
0001FFFFFFE00000
0003FFFFFFF80000
000FFFFFFFFE0000
001FFFFFFFFF0000
003FFFFFFFFF8000
007FFFFFFFFFC000
00FFFFFFFFFFE000
01FFFFFFFFFFF000
01FFFFFFFFFFF800
03FFFFFFFFFFFC00
07FFFFFFFFFFFE00
0FFFFFFFFFFFFE00
0FFFFFFFFFFFFF00
1FFFFFFFFFFFFF80
1FFFFFFFFFFFFF80
3FFFFFFFFFFFFFC0
3FFFFFFFFFFFFFC0
3FFFFFFFFFFFFFC0
7FFFFFFFFFFFFFE0
7FFFFFFFFFFFFFE0
7FFFFFFFFFFFFFE0
7FFFFFFFFFFFFFF0
FFFFFFFFFFFFFFF0
FFFFFFFFFFFFFFF0
FFFFFFFFFFFFFFF0
FFFFFFFFFFFFFFF0
FFFFFFFFFFFFFFF0
FFFFFFFFFFFFFFF0
FFFFFFFFFFFFFFF0
FFFFFFFFFFFFFFF0
FFFFFFFFFFFFFFF0
FFFFFFFFFFFFFFF0
FFFFFFFFFFFFFFF0
FFFFFFFFFFFFFFF0
FFFFFFFFFFFFFFF0
FFFFFFFFFFFFFFF0
7FFFFFFFFFFFFFF0
7FFFFFFFFFFFFFE0
7FFFFFFFFFFFFFE0
3FFFFFFFFFFFFFE0
3FFFFFFFFFFFFFC0
3FFFFFFFFFFFFFC0
1FFFFFFFFFFFFF80
1FFFFFFFFFFFFF80
0FFFFFFFFFFFFF00
0FFFFFFFFFFFFF00
07FFFFFFFFFFFE00
07FFFFFFFFFFFC00
03FFFFFFFFFFF800
01FFFFFFFFFFF800
00FFFFFFFFFFF000
007FFFFFFFFFE000
003FFFFFFFFFC000
001FFFFFFFFF0000
000FFFFFFFFE0000
0007FFFFFFFC0000
0001FFFFFFF00000
00007FFFFFC00000
00001FFFFF000000
000003FFF0000000
ENDCHAR
STARTCHAR n
ENCODING 110
SWIDTH 972 0
DWIDTH 73 0
BBX 61 63 6 6
BITMAP
0000003FF8000000
000003FFFF800000
00001FFFFFE00000
00007FFFFFF80000
0001FFFFFFFE0000
0003FFFFFFFF0000
0007FFFFFFFF8000
001FFFFFFFFFC000
003FFFFFFFFFE000
007FFFFFFFFFF000
00FFFFFFFFFFF800
01FFFFFFFFFFFC00
01FFFFFFFFFFFE00
03FFFFFFFFFFFE00
07FFFFFFFFFFFF00
0FFFFFFFFFFFFF80
0FFFFFFFFFFFFF80
1FFFFFFFFFFFFFC0
1FFFFFFFFFFFFFC0
3FFFFFFFFFFFFFE0
3FFFFFFFFFFFFFE0
3FFFFFFFFFFFFFE0
7FFFFFFFFFFFFFF0
7FFFFFFFFFFFFFF0
7FFFFFFFFFFFFFF0
7FFFFFFFFFFFFFF0
FFFFFFFFFFFFFFF0
FFFFFFFFFFFFFFF8
FFFFFFFFFFFFFFF8
FFFFFFFFFFFFFFF8
FFFFFFFFFFFFFFF8
FFFFFFFFFFFFFFF8
FFFFFFFFFFFFFFF8
FFFFFFFFFFFFFFF8
FFFFFFFFFFFFFFF8
FFFFFFFFFFFFFFF8
FFFFFFFFFFFFFFF0
7FFFFFFFFFFFFFF0
7FFFFFFFFFFFFFF0
7FFFFFFFFFFFFFF0
7FFFFFFFFFFFFFF0
3FFFFFFFFFFFFFE0
3FFFFFFFFFFFFFE0
3FFFFFFFFFFFFFE0
1FFFFFFFFFFFFFC0
1FFFFFFFFFFFFFC0
0FFFFFFFFFFFFF80
0FFFFFFFFFFFFF80
07FFFFFFFFFFFF00
03FFFFFFFFFFFF00
03FFFFFFFFFFFE00
01FFFFFFFFFFFC00
00FFFFFFFFFFFC00
007FFFFFFFFFF800
003FFFFFFFFFF000
001FFFFFFFFFE000
000FFFFFFFFFC000
0007FFFFFFFF8000
0001FFFFFFFE0000
0000FFFFFFFC0000
00003FFFFFF00000
000007FFFFC00000
000000FFFE000000
ENDCHAR
STARTCHAR o
ENCODING 111
SWIDTH 972 0
DWIDTH 73 0
BBX 58 63 6 6
BITMAP
0000003FF0000000
000003FFFF000000
00001FFFFFC00000
00007FFFFFF00000
0001FFFFFFF80000
0003FFFFFFFC0000
0007FFFFFFFE0000
001FFFFFFFFF0000
003FFFFFFFFF8000
007FFFFFFFFFC000
00FFFFFFFFFFE000
01FFFFFFFFFFF000
01FFFFFFFFFFF000
03FFFFFFFFFFF800
07FFFFFFFFFFFC00
0FFFFFFFFFFFFC00
0FFFFFFFFFFFFE00
1FFFFFFFFFFFFE00
1FFFFFFFFFFFFE00
3FFFFFFFFFFFFF00
3FFFFFFFFFFFFF00
3FFFFFFFFFFFFF00
7FFFFFFFFFFFFF80
7FFFFFFFFFFFFF80
7FFFFFFFFFFFFF80
7FFFFFFFFFFFFF80
FFFFFFFFFFFFFF80
FFFFFFFFFFFFFF80
FFFFFFFFFFFFFFC0
FFFFFFFFFFFFFFC0
FFFFFFFFFFFFFFC0
FFFFFFFFFFFFFFC0
FFFFFFFFFFFFFFC0
FFFFFFFFFFFFFFC0
FFFFFFFFFFFFFFC0
FFFFFFFFFFFFFF80
FFFFFFFFFFFFFF80
7FFFFFFFFFFFFF80
7FFFFFFFFFFFFF80
7FFFFFFFFFFFFF80
7FFFFFFFFFFFFF80
3FFFFFFFFFFFFF00
3FFFFFFFFFFFFF00
3FFFFFFFFFFFFF00
1FFFFFFFFFFFFE00
1FFFFFFFFFFFFE00
0FFFFFFFFFFFFE00
0FFFFFFFFFFFFC00
07FFFFFFFFFFFC00
03FFFFFFFFFFF800
03FFFFFFFFFFF800
01FFFFFFFFFFF000
00FFFFFFFFFFE000
007FFFFFFFFFC000
003FFFFFFFFFC000
001FFFFFFFFF8000
000FFFFFFFFF0000
0007FFFFFFFE0000
0001FFFFFFFC0000
0000FFFFFFF00000
00003FFFFFE00000
000007FFFF800000
000000FFFC000000
ENDCHAR
STARTCHAR p
ENCODING 112
SWIDTH 972 0
DWIDTH 73 0
BBX 54 63 6 6
BITMAP
0000003FF00000
000003FFFE0000
00001FFFFF8000
00007FFFFFC000
0001FFFFFFE000
0003FFFFFFF000
0007FFFFFFF800
001FFFFFFFFC00
003FFFFFFFFE00
007FFFFFFFFF00
00FFFFFFFFFF00
01FFFFFFFFFF80
01FFFFFFFFFF80
03FFFFFFFFFFC0
07FFFFFFFFFFC0
0FFFFFFFFFFFE0
0FFFFFFFFFFFE0
1FFFFFFFFFFFF0
1FFFFFFFFFFFF0
3FFFFFFFFFFFF0
3FFFFFFFFFFFF8
3FFFFFFFFFFFF8
7FFFFFFFFFFFF8
7FFFFFFFFFFFF8
7FFFFFFFFFFFF8
7FFFFFFFFFFFFC
FFFFFFFFFFFFFC
FFFFFFFFFFFFFC
FFFFFFFFFFFFFC
FFFFFFFFFFFFFC
FFFFFFFFFFFFFC
FFFFFFFFFFFFFC
FFFFFFFFFFFFFC
FFFFFFFFFFFFFC
FFFFFFFFFFFFFC
FFFFFFFFFFFFFC
FFFFFFFFFFFFFC
7FFFFFFFFFFFFC
7FFFFFFFFFFFF8
7FFFFFFFFFFFF8
7FFFFFFFFFFFF8
3FFFFFFFFFFFF8
3FFFFFFFFFFFF8
3FFFFFFFFFFFF0
1FFFFFFFFFFFF0
1FFFFFFFFFFFF0
0FFFFFFFFFFFE0
0FFFFFFFFFFFE0
07FFFFFFFFFFE0
03FFFFFFFFFFC0
03FFFFFFFFFFC0
01FFFFFFFFFF80
00FFFFFFFFFF00
007FFFFFFFFF00
003FFFFFFFFE00
001FFFFFFFFC00
000FFFFFFFFC00
0007FFFFFFF800
0001FFFFFFF000
0000FFFFFFC000
00003FFFFF8000
000007FFFE0000
000000FFF80000
ENDCHAR
STARTCHAR q
ENCODING 113
SWIDTH 972 0
DWIDTH 73 0
BBX 50 63 6 6
BITMAP
0000003FE00000
000003FFF80000
00001FFFFE0000
00007FFFFF0000
0001FFFFFF8000
0003FFFFFFC000
0007FFFFFFE000
001FFFFFFFE000
003FFFFFFFF000
007FFFFFFFF000
00FFFFFFFFF800
01FFFFFFFFFC00
01FFFFFFFFFC00
03FFFFFFFFFC00
07FFFFFFFFFE00
0FFFFFFFFFFE00
0FFFFFFFFFFE00
1FFFFFFFFFFF00
1FFFFFFFFFFF00
3FFFFFFFFFFF00
3FFFFFFFFFFF80
3FFFFFFFFFFF80
7FFFFFFFFFFF80
7FFFFFFFFFFF80
7FFFFFFFFFFF80
7FFFFFFFFFFF80
FFFFFFFFFFFF80
FFFFFFFFFFFF80
FFFFFFFFFFFFC0
FFFFFFFFFFFFC0
FFFFFFFFFFFFC0
FFFFFFFFFFFFC0
FFFFFFFFFFFFC0
FFFFFFFFFFFFC0
FFFFFFFFFFFFC0
FFFFFFFFFFFF80
FFFFFFFFFFFF80
7FFFFFFFFFFF80
7FFFFFFFFFFF80
7FFFFFFFFFFF80
7FFFFFFFFFFF80
3FFFFFFFFFFF80
3FFFFFFFFFFF80
3FFFFFFFFFFF00
1FFFFFFFFFFF00
1FFFFFFFFFFF00
0FFFFFFFFFFF00
0FFFFFFFFFFE00
07FFFFFFFFFE00
03FFFFFFFFFE00
03FFFFFFFFFC00
01FFFFFFFFFC00
00FFFFFFFFF800
007FFFFFFFF800
003FFFFFFFF000
001FFFFFFFF000
000FFFFFFFE000
0007FFFFFFC000
0001FFFFFF8000
0000FFFFFF0000
00003FFFFE0000
000007FFFC0000
000000FFF00000
ENDCHAR
STARTCHAR r
ENCODING 114
SWIDTH 972 0
DWIDTH 73 0
BBX 44 63 6 6
BITMAP
0000003FC000
000003FFF000
00001FFFF800
00007FFFFC00
0001FFFFFC00
0003FFFFFE00
0007FFFFFE00
001FFFFFFF00
003FFFFFFF00
007FFFFFFF80
00FFFFFFFF80
01FFFFFFFF80
01FFFFFFFFC0
03FFFFFFFFC0
07FFFFFFFFC0
0FFFFFFFFFE0
0FFFFFFFFFE0
1FFFFFFFFFE0
1FFFFFFFFFE0
3FFFFFFFFFE0
3FFFFFFFFFF0
3FFFFFFFFFF0
7FFFFFFFFFF0
7FFFFFFFFFF0
7FFFFFFFFFF0
7FFFFFFFFFF0
FFFFFFFFFFF0
FFFFFFFFFFF0
FFFFFFFFFFF0
FFFFFFFFFFF0
FFFFFFFFFFF0
FFFFFFFFFFF0
FFFFFFFFFFF0
FFFFFFFFFFF0
FFFFFFFFFFF0
FFFFFFFFFFF0
FFFFFFFFFFF0
7FFFFFFFFFF0
7FFFFFFFFFF0
7FFFFFFFFFF0
7FFFFFFFFFF0
3FFFFFFFFFF0
3FFFFFFFFFF0
3FFFFFFFFFF0
1FFFFFFFFFE0
1FFFFFFFFFE0
0FFFFFFFFFE0
0FFFFFFFFFE0
07FFFFFFFFC0
03FFFFFFFFC0
03FFFFFFFFC0
01FFFFFFFFC0
00FFFFFFFF80
007FFFFFFF80
003FFFFFFF00
001FFFFFFF00
000FFFFFFF00
0007FFFFFE00
0001FFFFFC00
0000FFFFFC00
00003FFFF800
000007FFF000
000000FFE000
ENDCHAR
STARTCHAR s
ENCODING 115
SWIDTH 972 0
DWIDTH 73 0
BBX 39 63 6 6
BITMAP
0000003F80
000003FFC0
00001FFFE0
00007FFFE0
0001FFFFE0
0003FFFFF0
0007FFFFF0
001FFFFFF0
003FFFFFF0
007FFFFFF8
00FFFFFFF8
01FFFFFFF8
01FFFFFFF8
03FFFFFFF8
07FFFFFFFC
0FFFFFFFFC
0FFFFFFFFC
1FFFFFFFFC
1FFFFFFFFC
3FFFFFFFFC
3FFFFFFFFC
3FFFFFFFFC
7FFFFFFFFC
7FFFFFFFFC
7FFFFFFFFC
7FFFFFFFFE
FFFFFFFFFE
FFFFFFFFFE
FFFFFFFFFE
FFFFFFFFFE
FFFFFFFFFE
FFFFFFFFFE
FFFFFFFFFE
FFFFFFFFFE
FFFFFFFFFE
FFFFFFFFFE
FFFFFFFFFE
7FFFFFFFFE
7FFFFFFFFC
7FFFFFFFFC
7FFFFFFFFC
3FFFFFFFFC
3FFFFFFFFC
3FFFFFFFFC
1FFFFFFFFC
1FFFFFFFFC
0FFFFFFFFC
0FFFFFFFFC
07FFFFFFFC
03FFFFFFF8
03FFFFFFF8
01FFFFFFF8
00FFFFFFF8
007FFFFFF8
003FFFFFF8
001FFFFFF0
000FFFFFF0
0007FFFFF0
0001FFFFE0
0000FFFFE0
00003FFFE0
000007FFC0
000000FF80
ENDCHAR
STARTCHAR t
ENCODING 116
SWIDTH 972 0
DWIDTH 73 0
BBX 32 63 6 6
BITMAP
0000003F
000003FF
00001FFF
00007FFF
0001FFFF
0003FFFF
0007FFFF
001FFFFF
003FFFFF
007FFFFF
00FFFFFF
01FFFFFF
01FFFFFF
03FFFFFF
07FFFFFF
0FFFFFFF
0FFFFFFF
1FFFFFFF
1FFFFFFF
3FFFFFFF
3FFFFFFF
3FFFFFFF
7FFFFFFF
7FFFFFFF
7FFFFFFF
7FFFFFFF
FFFFFFFF
FFFFFFFF
FFFFFFFF
FFFFFFFF
FFFFFFFF
FFFFFFFF
FFFFFFFF
FFFFFFFF
FFFFFFFF
FFFFFFFF
FFFFFFFF
7FFFFFFF
7FFFFFFF
7FFFFFFF
7FFFFFFF
3FFFFFFF
3FFFFFFF
3FFFFFFF
1FFFFFFF
1FFFFFFF
0FFFFFFF
0FFFFFFF
07FFFFFF
03FFFFFF
03FFFFFF
01FFFFFF
00FFFFFF
007FFFFF
003FFFFF
001FFFFF
000FFFFF
0007FFFF
0001FFFF
0000FFFF
00003FFF
000007FF
000000FF
ENDCHAR
STARTCHAR u
ENCODING 117
SWIDTH 972 0
DWIDTH 73 0
BBX 31 63 6 6
BITMAP
0000003E
000003FC
00001FF8
00007FF8
0001FFF0
0003FFF0
0007FFF0
001FFFE0
003FFFE0
007FFFE0
00FFFFE0
01FFFFC0
01FFFFC0
03FFFFC0
07FFFFC0
0FFFFFC0
0FFFFFC0
1FFFFFC0
1FFFFFC0
3FFFFF80
3FFFFF80
3FFFFF80
7FFFFF80
7FFFFF80
7FFFFF80
7FFFFF80
FFFFFF80
FFFFFF80
FFFFFF80
FFFFFF80
FFFFFF80
FFFFFF80
FFFFFF80
FFFFFF80
FFFFFF80
FFFFFF80
FFFFFF80
7FFFFF80
7FFFFF80
7FFFFF80
7FFFFF80
3FFFFF80
3FFFFF80
3FFFFF80
1FFFFF80
1FFFFFC0
0FFFFFC0
0FFFFFC0
07FFFFC0
03FFFFC0
03FFFFC0
01FFFFC0
00FFFFE0
007FFFE0
003FFFE0
001FFFE0
000FFFE0
0007FFF0
0001FFF0
0000FFF0
00003FF8
000007F8
000000FC
ENDCHAR
STARTCHAR v
ENCODING 118
SWIDTH 972 0
DWIDTH 73 0
BBX 30 63 6 6
BITMAP
0000003C
000003F0
00001FE0
00007FC0
0001FF80
0003FF80
0007FF00
001FFF00
003FFE00
007FFE00
00FFFC00
01FFFC00
01FFFC00
03FFF800
07FFF800
0FFFF800
0FFFF800
1FFFF000
1FFFF000
3FFFF000
3FFFF000
3FFFF000
7FFFF000
7FFFF000
7FFFE000
7FFFE000
FFFFE000
FFFFE000
FFFFE000
FFFFE000
FFFFE000
FFFFE000
FFFFE000
FFFFE000
FFFFE000
FFFFE000
FFFFE000
7FFFE000
7FFFE000
7FFFF000
7FFFF000
3FFFF000
3FFFF000
3FFFF000
1FFFF000
1FFFF000
0FFFF800
0FFFF800
07FFF800
03FFF800
03FFFC00
01FFFC00
00FFFC00
007FFE00
003FFE00
001FFF00
000FFF00
0007FF80
0001FF80
0000FFC0
00003FE0
000007F0
000000F8
ENDCHAR
STARTCHAR w
ENCODING 119
SWIDTH 972 0
DWIDTH 73 0
BBX 29 63 6 6
BITMAP
00000038
000003C0
00001F80
00007F00
0001FE00
0003FC00
0007F800
001FF000
003FF000
007FE000
00FFE000
01FFC000
01FFC000
03FF8000
07FF8000
0FFF0000
0FFF0000
1FFF0000
1FFF0000
3FFE0000
3FFE0000
3FFE0000
7FFE0000
7FFC0000
7FFC0000
7FFC0000
FFFC0000
FFFC0000
FFFC0000
FFFC0000
FFFC0000
FFFC0000
FFFC0000
FFFC0000
FFFC0000
FFFC0000
FFFC0000
7FFC0000
7FFC0000
7FFC0000
7FFE0000
3FFE0000
3FFE0000
3FFE0000
1FFE0000
1FFF0000
0FFF0000
0FFF0000
07FF8000
03FF8000
03FF8000
01FFC000
00FFC000
007FE000
003FE000
001FF000
000FF800
0007F800
0001FC00
0000FE00
00003F00
000007C0
000000F0
ENDCHAR
STARTCHAR x
ENCODING 120
SWIDTH 972 0
DWIDTH 73 0
BBX 28 63 6 6
BITMAP
00000030
00000380
00001E00
00007C00
0001F000
0003E000
0007C000
001FC000
003F8000
007F0000
00FE0000
01FE0000
01FC0000
03FC0000
07F80000
0FF80000
0FF00000
1FF00000
1FF00000
3FE00000
3FE00000
3FE00000
7FE00000
7FC00000
7FC00000
7FC00000
FFC00000
FFC00000
FFC00000
FFC00000
FFC00000
FFC00000
FFC00000
FFC00000
FFC00000
FFC00000
FFC00000
7FC00000
7FC00000
7FC00000
7FC00000
3FE00000
3FE00000
3FE00000
1FF00000
1FF00000
0FF00000
0FF80000
07F80000
03F80000
03FC0000
01FE0000
00FE0000
007F0000
003F0000
001F8000
000FC000
0007E000
0001F000
0000F800
00003C00
00000700
000000E0
ENDCHAR
STARTCHAR y
ENCODING 121
SWIDTH 972 0
DWIDTH 73 0
BBX 27 63 6 6
BITMAP
00000020
00000300
00001C00
00007000
0001C000
00038000
00070000
001E0000
003C0000
00780000
00F80000
01F00000
01E00000
03E00000
07C00000
0FC00000
0F800000
1F800000
1F000000
3F000000
3F000000
3E000000
7E000000
7E000000
7E000000
7C000000
FC000000
FC000000
FC000000
FC000000
FC000000
FC000000
FC000000
FC000000
FC000000
FC000000
FC000000
7C000000
7E000000
7E000000
7E000000
3E000000
3E000000
3F000000
1F000000
1F000000
0F800000
0F800000
07C00000
03C00000
03E00000
01F00000
00F00000
00780000
003C0000
001E0000
000F0000
00078000
0001C000
0000E000
00003800
00000600
000000C0
ENDCHAR
STARTCHAR z
ENCODING 122
SWIDTH 972 0
DWIDTH 73 0
BBX 27 63 6 6
BITMAP
00000020
00000200
00001000
00004000
00018000
00020000
00040000
00180000
00300000
00600000
00C00000
01C00000
01800000
03000000
06000000
0E000000
0C000000
1C000000
18000000
38000000
38000000
30000000
70000000
70000000
70000000
60000000
E0000000
E0000000
E0000000
E0000000
E0000000
E0000000
E0000000
E0000000
E0000000
E0000000
E0000000
60000000
60000000
70000000
70000000
30000000
38000000
38000000
18000000
1C000000
0C000000
0E000000
06000000
03000000
03800000
01800000
00C00000
00600000
00300000
00180000
000C0000
00060000
00010000
0000C000
00003000
00000400
00000080
ENDCHAR
ENDFONT
